<mxfile host="app.diagrams.net" modified="2024-05-22T12:39:17.901Z" agent="Mozilla/5.0 (Windows NT 10.0; Win64; x64) AppleWebKit/537.36 (KHTML, like Gecko) Chrome/121.0.0.0 Safari/537.36" etag="q1vVCGZoHeTkq8Aen12t" version="24.4.5" type="device" pages="5">
  <diagram id="AqQXITIFxmbpZis7r4Wy" name="Cad. Cliente ">
    <mxGraphModel dx="1434" dy="1951" grid="1" gridSize="10" guides="1" tooltips="1" connect="1" arrows="1" fold="1" page="1" pageScale="1" pageWidth="827" pageHeight="1169" math="0" shadow="0">
      <root>
        <mxCell id="0" />
        <mxCell id="1" parent="0" />
        <mxCell id="Wvut3XEcYQNylNmiVtxb-1" value="" style="rounded=0;whiteSpace=wrap;html=1;fillColor=#d5e8d4;strokeColor=#82b366;" vertex="1" parent="1">
          <mxGeometry x="302.5" width="95" height="40" as="geometry" />
        </mxCell>
        <mxCell id="Wvut3XEcYQNylNmiVtxb-2" value="Inicio do Cadastramento" style="text;html=1;align=center;verticalAlign=middle;whiteSpace=wrap;rounded=0;" vertex="1" parent="1">
          <mxGeometry x="320" y="5" width="60" height="30" as="geometry" />
        </mxCell>
        <mxCell id="Wvut3XEcYQNylNmiVtxb-3" value="" style="rounded=0;whiteSpace=wrap;html=1;fillColor=#d5e8d4;strokeColor=#82b366;" vertex="1" parent="1">
          <mxGeometry x="302.5" y="120" width="95" height="40" as="geometry" />
        </mxCell>
        <mxCell id="Wvut3XEcYQNylNmiVtxb-4" value="Captação de Dados&amp;nbsp;" style="text;html=1;align=center;verticalAlign=middle;whiteSpace=wrap;rounded=0;" vertex="1" parent="1">
          <mxGeometry x="320" y="125" width="60" height="30" as="geometry" />
        </mxCell>
        <mxCell id="Wvut3XEcYQNylNmiVtxb-5" value="" style="endArrow=classic;html=1;rounded=0;" edge="1" parent="1">
          <mxGeometry width="50" height="50" relative="1" as="geometry">
            <mxPoint x="349.5" y="40" as="sourcePoint" />
            <mxPoint x="349.5" y="110" as="targetPoint" />
          </mxGeometry>
        </mxCell>
        <mxCell id="Wvut3XEcYQNylNmiVtxb-6" value="" style="endArrow=classic;html=1;rounded=0;" edge="1" parent="1">
          <mxGeometry width="50" height="50" relative="1" as="geometry">
            <mxPoint x="349.5" y="160" as="sourcePoint" />
            <mxPoint x="349.5" y="230" as="targetPoint" />
          </mxGeometry>
        </mxCell>
        <mxCell id="Wvut3XEcYQNylNmiVtxb-7" value="" style="rhombus;whiteSpace=wrap;html=1;fillColor=#fff2cc;strokeColor=#d6b656;" vertex="1" parent="1">
          <mxGeometry x="290" y="240" width="120" height="90" as="geometry" />
        </mxCell>
        <mxCell id="Wvut3XEcYQNylNmiVtxb-8" value="Verificação de Dados&amp;nbsp;" style="text;html=1;align=center;verticalAlign=middle;whiteSpace=wrap;rounded=0;" vertex="1" parent="1">
          <mxGeometry x="320" y="270" width="60" height="30" as="geometry" />
        </mxCell>
        <mxCell id="Wvut3XEcYQNylNmiVtxb-9" value="" style="endArrow=classic;html=1;rounded=0;exitX=1;exitY=0.5;exitDx=0;exitDy=0;" edge="1" parent="1" source="Wvut3XEcYQNylNmiVtxb-7">
          <mxGeometry width="50" height="50" relative="1" as="geometry">
            <mxPoint x="423.5" y="280" as="sourcePoint" />
            <mxPoint x="493.5" y="280" as="targetPoint" />
          </mxGeometry>
        </mxCell>
        <mxCell id="Wvut3XEcYQNylNmiVtxb-10" value="" style="endArrow=classic;html=1;rounded=0;exitX=0;exitY=0.5;exitDx=0;exitDy=0;" edge="1" parent="1" source="Wvut3XEcYQNylNmiVtxb-7">
          <mxGeometry width="50" height="50" relative="1" as="geometry">
            <mxPoint x="280" y="280.19" as="sourcePoint" />
            <mxPoint x="210" y="280" as="targetPoint" />
          </mxGeometry>
        </mxCell>
        <mxCell id="Wvut3XEcYQNylNmiVtxb-11" value="Correção de dados" style="text;html=1;align=center;verticalAlign=middle;whiteSpace=wrap;rounded=0;" vertex="1" parent="1">
          <mxGeometry x="414" y="250" width="60" height="30" as="geometry" />
        </mxCell>
        <mxCell id="Wvut3XEcYQNylNmiVtxb-12" value="dados Invalidos" style="text;html=1;align=center;verticalAlign=middle;whiteSpace=wrap;rounded=0;" vertex="1" parent="1">
          <mxGeometry x="230" y="250" width="60" height="30" as="geometry" />
        </mxCell>
        <mxCell id="Wvut3XEcYQNylNmiVtxb-13" value="" style="rounded=0;whiteSpace=wrap;html=1;fillColor=#d5e8d4;strokeColor=#82b366;" vertex="1" parent="1">
          <mxGeometry x="500" y="260" width="95" height="40" as="geometry" />
        </mxCell>
        <mxCell id="Wvut3XEcYQNylNmiVtxb-14" value="" style="rounded=0;whiteSpace=wrap;html=1;fillColor=#d5e8d4;strokeColor=#82b366;" vertex="1" parent="1">
          <mxGeometry x="110" y="265" width="95" height="40" as="geometry" />
        </mxCell>
        <mxCell id="Wvut3XEcYQNylNmiVtxb-15" value="Recepção de dados" style="text;html=1;align=center;verticalAlign=middle;whiteSpace=wrap;rounded=0;" vertex="1" parent="1">
          <mxGeometry x="517.5" y="265" width="60" height="30" as="geometry" />
        </mxCell>
        <mxCell id="Wvut3XEcYQNylNmiVtxb-16" value="Correção de Dados" style="text;html=1;align=center;verticalAlign=middle;whiteSpace=wrap;rounded=0;" vertex="1" parent="1">
          <mxGeometry x="115" y="270" width="90" height="30" as="geometry" />
        </mxCell>
        <mxCell id="Wvut3XEcYQNylNmiVtxb-17" value="" style="endArrow=classic;html=1;rounded=0;" edge="1" parent="1">
          <mxGeometry width="50" height="50" relative="1" as="geometry">
            <mxPoint x="547" y="300" as="sourcePoint" />
            <mxPoint x="547" y="370" as="targetPoint" />
          </mxGeometry>
        </mxCell>
        <mxCell id="Wvut3XEcYQNylNmiVtxb-18" value="Corte de Tecido" style="text;html=1;align=center;verticalAlign=middle;whiteSpace=wrap;rounded=0;" vertex="1" parent="1">
          <mxGeometry x="517.5" y="400" width="60" height="30" as="geometry" />
        </mxCell>
        <mxCell id="Wvut3XEcYQNylNmiVtxb-19" value="" style="rhombus;whiteSpace=wrap;html=1;fillColor=#fff2cc;strokeColor=#d6b656;" vertex="1" parent="1">
          <mxGeometry x="487.5" y="370" width="120" height="90" as="geometry" />
        </mxCell>
        <mxCell id="Wvut3XEcYQNylNmiVtxb-20" value="Consulta de Dados Existentes&amp;nbsp;" style="text;html=1;align=center;verticalAlign=middle;whiteSpace=wrap;rounded=0;" vertex="1" parent="1">
          <mxGeometry x="517.5" y="400" width="60" height="30" as="geometry" />
        </mxCell>
        <mxCell id="Wvut3XEcYQNylNmiVtxb-21" value="" style="endArrow=classic;html=1;rounded=0;exitX=0.25;exitY=1;exitDx=0;exitDy=0;" edge="1" parent="1">
          <mxGeometry width="50" height="50" relative="1" as="geometry">
            <mxPoint x="487.5" y="414.5" as="sourcePoint" />
            <mxPoint x="487.5" y="414.5" as="targetPoint" />
          </mxGeometry>
        </mxCell>
        <mxCell id="Wvut3XEcYQNylNmiVtxb-22" value="" style="endArrow=classic;html=1;rounded=0;" edge="1" parent="1">
          <mxGeometry width="50" height="50" relative="1" as="geometry">
            <mxPoint x="487.5" y="414.5" as="sourcePoint" />
            <mxPoint x="417.5" y="414.5" as="targetPoint" />
          </mxGeometry>
        </mxCell>
        <mxCell id="Wvut3XEcYQNylNmiVtxb-23" value="Cliente já Cadastrado" style="text;html=1;align=center;verticalAlign=middle;whiteSpace=wrap;rounded=0;" vertex="1" parent="1">
          <mxGeometry x="427.5" y="380" width="60" height="30" as="geometry" />
        </mxCell>
        <mxCell id="Wvut3XEcYQNylNmiVtxb-24" value="" style="rounded=0;whiteSpace=wrap;html=1;fillColor=#d5e8d4;strokeColor=#82b366;" vertex="1" parent="1">
          <mxGeometry x="320" y="395" width="95" height="40" as="geometry" />
        </mxCell>
        <mxCell id="Wvut3XEcYQNylNmiVtxb-25" value="Atualizar Dados&amp;nbsp;" style="text;html=1;align=center;verticalAlign=middle;whiteSpace=wrap;rounded=0;" vertex="1" parent="1">
          <mxGeometry x="337.5" y="400" width="60" height="30" as="geometry" />
        </mxCell>
        <mxCell id="Wvut3XEcYQNylNmiVtxb-26" value="" style="endArrow=classic;html=1;rounded=0;" edge="1" parent="1">
          <mxGeometry width="50" height="50" relative="1" as="geometry">
            <mxPoint x="607.5" y="414.5" as="sourcePoint" />
            <mxPoint x="687.5" y="414.5" as="targetPoint" />
          </mxGeometry>
        </mxCell>
        <mxCell id="Wvut3XEcYQNylNmiVtxb-27" value="Cliente não cadastrado" style="text;html=1;align=center;verticalAlign=middle;whiteSpace=wrap;rounded=0;" vertex="1" parent="1">
          <mxGeometry x="597.5" y="380" width="92.5" height="30" as="geometry" />
        </mxCell>
        <mxCell id="Wvut3XEcYQNylNmiVtxb-28" value="" style="rounded=0;whiteSpace=wrap;html=1;fillColor=#d5e8d4;strokeColor=#82b366;" vertex="1" parent="1">
          <mxGeometry x="690" y="400" width="95" height="40" as="geometry" />
        </mxCell>
        <mxCell id="Wvut3XEcYQNylNmiVtxb-29" value="Cadastrar Cliente&amp;nbsp;" style="text;html=1;align=center;verticalAlign=middle;whiteSpace=wrap;rounded=0;" vertex="1" parent="1">
          <mxGeometry x="707.5" y="405" width="60" height="30" as="geometry" />
        </mxCell>
        <mxCell id="Wvut3XEcYQNylNmiVtxb-30" value="" style="endArrow=classic;html=1;rounded=0;" edge="1" parent="1">
          <mxGeometry width="50" height="50" relative="1" as="geometry">
            <mxPoint x="360" y="435" as="sourcePoint" />
            <mxPoint x="360" y="505" as="targetPoint" />
          </mxGeometry>
        </mxCell>
        <mxCell id="Wvut3XEcYQNylNmiVtxb-31" value="" style="rounded=0;whiteSpace=wrap;html=1;fillColor=#d5e8d4;strokeColor=#82b366;" vertex="1" parent="1">
          <mxGeometry x="315" y="510" width="95" height="40" as="geometry" />
        </mxCell>
        <mxCell id="Wvut3XEcYQNylNmiVtxb-32" value="Comfirmação de Cadastro&amp;nbsp;" style="text;html=1;align=center;verticalAlign=middle;whiteSpace=wrap;rounded=0;" vertex="1" parent="1">
          <mxGeometry x="332.5" y="515" width="60" height="30" as="geometry" />
        </mxCell>
        <mxCell id="Wvut3XEcYQNylNmiVtxb-33" value="" style="endArrow=classic;html=1;rounded=0;" edge="1" parent="1">
          <mxGeometry width="50" height="50" relative="1" as="geometry">
            <mxPoint x="362" y="550" as="sourcePoint" />
            <mxPoint x="362" y="630" as="targetPoint" />
          </mxGeometry>
        </mxCell>
        <mxCell id="Wvut3XEcYQNylNmiVtxb-34" value="" style="rounded=0;whiteSpace=wrap;html=1;fillColor=#d5e8d4;strokeColor=#82b366;" vertex="1" parent="1">
          <mxGeometry x="315" y="640" width="95" height="40" as="geometry" />
        </mxCell>
        <mxCell id="Wvut3XEcYQNylNmiVtxb-35" value="Registro de Atividades" style="text;html=1;align=center;verticalAlign=middle;whiteSpace=wrap;rounded=0;" vertex="1" parent="1">
          <mxGeometry x="326.25" y="645" width="82.5" height="30" as="geometry" />
        </mxCell>
        <mxCell id="Wvut3XEcYQNylNmiVtxb-36" value="" style="endArrow=classic;html=1;rounded=0;" edge="1" parent="1">
          <mxGeometry width="50" height="50" relative="1" as="geometry">
            <mxPoint x="362" y="680" as="sourcePoint" />
            <mxPoint x="362" y="760" as="targetPoint" />
          </mxGeometry>
        </mxCell>
        <mxCell id="Wvut3XEcYQNylNmiVtxb-42" value="" style="endArrow=classic;html=1;rounded=0;" edge="1" parent="1">
          <mxGeometry width="50" height="50" relative="1" as="geometry">
            <mxPoint x="302.5" y="19.5" as="sourcePoint" />
            <mxPoint x="212.5" y="20" as="targetPoint" />
          </mxGeometry>
        </mxCell>
        <mxCell id="Wvut3XEcYQNylNmiVtxb-43" value="" style="ellipse;whiteSpace=wrap;html=1;fillColor=#e1d5e7;strokeColor=#9673a6;" vertex="1" parent="1">
          <mxGeometry x="120" y="-10" width="85" height="60" as="geometry" />
        </mxCell>
        <mxCell id="Wvut3XEcYQNylNmiVtxb-44" value="inicio" style="text;html=1;align=center;verticalAlign=middle;whiteSpace=wrap;rounded=0;" vertex="1" parent="1">
          <mxGeometry x="132.5" y="5" width="60" height="30" as="geometry" />
        </mxCell>
        <mxCell id="Wvut3XEcYQNylNmiVtxb-46" value="" style="ellipse;whiteSpace=wrap;html=1;fillColor=#e1d5e7;strokeColor=#9673a6;" vertex="1" parent="1">
          <mxGeometry x="317.5" y="770" width="90" height="60" as="geometry" />
        </mxCell>
        <mxCell id="Wvut3XEcYQNylNmiVtxb-47" value="FIm" style="text;html=1;align=center;verticalAlign=middle;whiteSpace=wrap;rounded=0;" vertex="1" parent="1">
          <mxGeometry x="332.5" y="785" width="60" height="30" as="geometry" />
        </mxCell>
      </root>
    </mxGraphModel>
  </diagram>
  <diagram id="ZhM85tqDlgtKYZ8MYT5-" name="Deletar Cadastro">
    <mxGraphModel dx="1434" dy="1951" grid="1" gridSize="10" guides="1" tooltips="1" connect="1" arrows="1" fold="1" page="1" pageScale="1" pageWidth="827" pageHeight="1169" math="0" shadow="0">
      <root>
        <mxCell id="0" />
        <mxCell id="1" parent="0" />
        <mxCell id="A1fCGlSLNSyYVTEeg8kQ-1" value="" style="rounded=0;whiteSpace=wrap;html=1;fillColor=#d5e8d4;strokeColor=#82b366;" vertex="1" parent="1">
          <mxGeometry x="302.5" width="95" height="40" as="geometry" />
        </mxCell>
        <mxCell id="A1fCGlSLNSyYVTEeg8kQ-2" value="Solicitar Id do Cliente&amp;nbsp;" style="text;html=1;align=center;verticalAlign=middle;whiteSpace=wrap;rounded=0;" vertex="1" parent="1">
          <mxGeometry x="320" y="5" width="60" height="30" as="geometry" />
        </mxCell>
        <mxCell id="A1fCGlSLNSyYVTEeg8kQ-3" value="" style="rounded=0;whiteSpace=wrap;html=1;fillColor=#d5e8d4;strokeColor=#82b366;" vertex="1" parent="1">
          <mxGeometry x="302.5" y="120" width="95" height="40" as="geometry" />
        </mxCell>
        <mxCell id="A1fCGlSLNSyYVTEeg8kQ-4" value="Validar Id do Cliente&amp;nbsp;" style="text;html=1;align=center;verticalAlign=middle;whiteSpace=wrap;rounded=0;" vertex="1" parent="1">
          <mxGeometry x="320" y="125" width="60" height="30" as="geometry" />
        </mxCell>
        <mxCell id="A1fCGlSLNSyYVTEeg8kQ-5" value="" style="endArrow=classic;html=1;rounded=0;" edge="1" parent="1">
          <mxGeometry width="50" height="50" relative="1" as="geometry">
            <mxPoint x="349.5" y="40" as="sourcePoint" />
            <mxPoint x="349.5" y="110" as="targetPoint" />
          </mxGeometry>
        </mxCell>
        <mxCell id="A1fCGlSLNSyYVTEeg8kQ-6" value="" style="endArrow=classic;html=1;rounded=0;" edge="1" parent="1">
          <mxGeometry width="50" height="50" relative="1" as="geometry">
            <mxPoint x="349.5" y="160" as="sourcePoint" />
            <mxPoint x="349.5" y="230" as="targetPoint" />
          </mxGeometry>
        </mxCell>
        <mxCell id="A1fCGlSLNSyYVTEeg8kQ-7" value="" style="rhombus;whiteSpace=wrap;html=1;fillColor=#fff2cc;strokeColor=#d6b656;" vertex="1" parent="1">
          <mxGeometry x="290" y="240" width="120" height="90" as="geometry" />
        </mxCell>
        <mxCell id="A1fCGlSLNSyYVTEeg8kQ-8" value="Id Valido ?" style="text;html=1;align=center;verticalAlign=middle;whiteSpace=wrap;rounded=0;" vertex="1" parent="1">
          <mxGeometry x="320" y="270" width="60" height="30" as="geometry" />
        </mxCell>
        <mxCell id="A1fCGlSLNSyYVTEeg8kQ-9" value="" style="endArrow=classic;html=1;rounded=0;exitX=1;exitY=0.5;exitDx=0;exitDy=0;" edge="1" parent="1" source="A1fCGlSLNSyYVTEeg8kQ-7">
          <mxGeometry width="50" height="50" relative="1" as="geometry">
            <mxPoint x="423.5" y="280" as="sourcePoint" />
            <mxPoint x="493.5" y="280" as="targetPoint" />
          </mxGeometry>
        </mxCell>
        <mxCell id="A1fCGlSLNSyYVTEeg8kQ-10" value="" style="endArrow=classic;html=1;rounded=0;exitX=0;exitY=0.5;exitDx=0;exitDy=0;" edge="1" parent="1" source="A1fCGlSLNSyYVTEeg8kQ-7">
          <mxGeometry width="50" height="50" relative="1" as="geometry">
            <mxPoint x="280" y="280.19" as="sourcePoint" />
            <mxPoint x="210" y="280" as="targetPoint" />
          </mxGeometry>
        </mxCell>
        <mxCell id="A1fCGlSLNSyYVTEeg8kQ-11" value="Sim" style="text;html=1;align=center;verticalAlign=middle;whiteSpace=wrap;rounded=0;" vertex="1" parent="1">
          <mxGeometry x="414" y="250" width="60" height="30" as="geometry" />
        </mxCell>
        <mxCell id="A1fCGlSLNSyYVTEeg8kQ-12" value="Não" style="text;html=1;align=center;verticalAlign=middle;whiteSpace=wrap;rounded=0;" vertex="1" parent="1">
          <mxGeometry x="230" y="250" width="60" height="30" as="geometry" />
        </mxCell>
        <mxCell id="A1fCGlSLNSyYVTEeg8kQ-13" value="" style="rounded=0;whiteSpace=wrap;html=1;fillColor=#d5e8d4;strokeColor=#82b366;" vertex="1" parent="1">
          <mxGeometry x="500" y="260" width="95" height="40" as="geometry" />
        </mxCell>
        <mxCell id="A1fCGlSLNSyYVTEeg8kQ-14" value="" style="rounded=0;whiteSpace=wrap;html=1;fillColor=#d5e8d4;strokeColor=#82b366;" vertex="1" parent="1">
          <mxGeometry x="110" y="265" width="95" height="40" as="geometry" />
        </mxCell>
        <mxCell id="A1fCGlSLNSyYVTEeg8kQ-15" value="&lt;span style=&quot;color: rgba(0, 0, 0, 0); font-family: monospace; font-size: 0px; text-align: start; text-wrap: nowrap;&quot;&gt;%3CmxGraphModel%3E%3Croot%3E%3CmxCell%20id%3D%220%22%2F%3E%3CmxCell%20id%3D%221%22%20parent%3D%220%22%2F%3E%3CmxCell%20id%3D%222%22%20value%3D%22%22%20style%3D%22rounded%3D0%3BwhiteSpace%3Dwrap%3Bhtml%3D1%3BfillColor%3D%23d5e8d4%3BstrokeColor%3D%2382b366%3B%22%20vertex%3D%221%22%20parent%3D%221%22%3E%3CmxGeometry%20x%3D%22302.5%22%20width%3D%2295%22%20height%3D%2240%22%20as%3D%22geometry%22%2F%3E%3C%2FmxCell%3E%3CmxCell%20id%3D%223%22%20value%3D%22Inicio%20do%20Cadastramento%22%20style%3D%22text%3Bhtml%3D1%3Balign%3Dcenter%3BverticalAlign%3Dmiddle%3BwhiteSpace%3Dwrap%3Brounded%3D0%3B%22%20vertex%3D%221%22%20parent%3D%221%22%3E%3CmxGeometry%20x%3D%22320%22%20y%3D%225%22%20width%3D%2260%22%20height%3D%2230%22%20as%3D%22geometry%22%2F%3E%3C%2FmxCell%3E%3CmxCell%20id%3D%224%22%20value%3D%22%22%20style%3D%22rounded%3D0%3BwhiteSpace%3Dwrap%3Bhtml%3D1%3BfillColor%3D%23d5e8d4%3BstrokeColor%3D%2382b366%3B%22%20vertex%3D%221%22%20parent%3D%221%22%3E%3CmxGeometry%20x%3D%22302.5%22%20y%3D%22120%22%20width%3D%2295%22%20height%3D%2240%22%20as%3D%22geometry%22%2F%3E%3C%2FmxCell%3E%3CmxCell%20id%3D%225%22%20value%3D%22Capta%C3%A7%C3%A3o%20de%20Dados%26amp%3Bnbsp%3B%22%20style%3D%22text%3Bhtml%3D1%3Balign%3Dcenter%3BverticalAlign%3Dmiddle%3BwhiteSpace%3Dwrap%3Brounded%3D0%3B%22%20vertex%3D%221%22%20parent%3D%221%22%3E%3CmxGeometry%20x%3D%22320%22%20y%3D%22125%22%20width%3D%2260%22%20height%3D%2230%22%20as%3D%22geometry%22%2F%3E%3C%2FmxCell%3E%3CmxCell%20id%3D%226%22%20value%3D%22%22%20style%3D%22endArrow%3Dclassic%3Bhtml%3D1%3Brounded%3D0%3B%22%20edge%3D%221%22%20parent%3D%221%22%3E%3CmxGeometry%20width%3D%2250%22%20height%3D%2250%22%20relative%3D%221%22%20as%3D%22geometry%22%3E%3CmxPoint%20x%3D%22349.5%22%20y%3D%2240%22%20as%3D%22sourcePoint%22%2F%3E%3CmxPoint%20x%3D%22349.5%22%20y%3D%22110%22%20as%3D%22targetPoint%22%2F%3E%3C%2FmxGeometry%3E%3C%2FmxCell%3E%3CmxCell%20id%3D%227%22%20value%3D%22%22%20style%3D%22endArrow%3Dclassic%3Bhtml%3D1%3Brounded%3D0%3B%22%20edge%3D%221%22%20parent%3D%221%22%3E%3CmxGeometry%20width%3D%2250%22%20height%3D%2250%22%20relative%3D%221%22%20as%3D%22geometry%22%3E%3CmxPoint%20x%3D%22349.5%22%20y%3D%22160%22%20as%3D%22sourcePoint%22%2F%3E%3CmxPoint%20x%3D%22349.5%22%20y%3D%22230%22%20as%3D%22targetPoint%22%2F%3E%3C%2FmxGeometry%3E%3C%2FmxCell%3E%3CmxCell%20id%3D%228%22%20value%3D%22%22%20style%3D%22rhombus%3BwhiteSpace%3Dwrap%3Bhtml%3D1%3BfillColor%3D%23fff2cc%3BstrokeColor%3D%23d6b656%3B%22%20vertex%3D%221%22%20parent%3D%221%22%3E%3CmxGeometry%20x%3D%22290%22%20y%3D%22240%22%20width%3D%22120%22%20height%3D%2290%22%20as%3D%22geometry%22%2F%3E%3C%2FmxCell%3E%3CmxCell%20id%3D%229%22%20value%3D%22Verifica%C3%A7%C3%A3o%20de%20Dados%26amp%3Bnbsp%3B%22%20style%3D%22text%3Bhtml%3D1%3Balign%3Dcenter%3BverticalAlign%3Dmiddle%3BwhiteSpace%3Dwrap%3Brounded%3D0%3B%22%20vertex%3D%221%22%20parent%3D%221%22%3E%3CmxGeometry%20x%3D%22320%22%20y%3D%22270%22%20width%3D%2260%22%20height%3D%2230%22%20as%3D%22geometry%22%2F%3E%3C%2FmxCell%3E%3CmxCell%20id%3D%2210%22%20value%3D%22%22%20style%3D%22endArrow%3Dclassic%3Bhtml%3D1%3Brounded%3D0%3BexitX%3D1%3BexitY%3D0.5%3BexitDx%3D0%3BexitDy%3D0%3B%22%20edge%3D%221%22%20source%3D%228%22%20parent%3D%221%22%3E%3CmxGeometry%20width%3D%2250%22%20height%3D%2250%22%20relative%3D%221%22%20as%3D%22geometry%22%3E%3CmxPoint%20x%3D%22423.5%22%20y%3D%22280%22%20as%3D%22sourcePoint%22%2F%3E%3CmxPoint%20x%3D%22493.5%22%20y%3D%22280%22%20as%3D%22targetPoint%22%2F%3E%3C%2FmxGeometry%3E%3C%2FmxCell%3E%3CmxCell%20id%3D%2211%22%20value%3D%22%22%20style%3D%22endArrow%3Dclassic%3Bhtml%3D1%3Brounded%3D0%3BexitX%3D0%3BexitY%3D0.5%3BexitDx%3D0%3BexitDy%3D0%3B%22%20edge%3D%221%22%20source%3D%228%22%20parent%3D%221%22%3E%3CmxGeometry%20width%3D%2250%22%20height%3D%2250%22%20relative%3D%221%22%20as%3D%22geometry%22%3E%3CmxPoint%20x%3D%22280%22%20y%3D%22280.19%22%20as%3D%22sourcePoint%22%2F%3E%3CmxPoint%20x%3D%22210%22%20y%3D%22280%22%20as%3D%22targetPoint%22%2F%3E%3C%2FmxGeometry%3E%3C%2FmxCell%3E%3CmxCell%20id%3D%2212%22%20value%3D%22Corre%C3%A7%C3%A3o%20de%20dados%22%20style%3D%22text%3Bhtml%3D1%3Balign%3Dcenter%3BverticalAlign%3Dmiddle%3BwhiteSpace%3Dwrap%3Brounded%3D0%3B%22%20vertex%3D%221%22%20parent%3D%221%22%3E%3CmxGeometry%20x%3D%22414%22%20y%3D%22250%22%20width%3D%2260%22%20height%3D%2230%22%20as%3D%22geometry%22%2F%3E%3C%2FmxCell%3E%3CmxCell%20id%3D%2213%22%20value%3D%22dados%20Invalidos%22%20style%3D%22text%3Bhtml%3D1%3Balign%3Dcenter%3BverticalAlign%3Dmiddle%3BwhiteSpace%3Dwrap%3Brounded%3D0%3B%22%20vertex%3D%221%22%20parent%3D%221%22%3E%3CmxGeometry%20x%3D%22230%22%20y%3D%22250%22%20width%3D%2260%22%20height%3D%2230%22%20as%3D%22geometry%22%2F%3E%3C%2FmxCell%3E%3CmxCell%20id%3D%2214%22%20value%3D%22%22%20style%3D%22rounded%3D0%3BwhiteSpace%3Dwrap%3Bhtml%3D1%3BfillColor%3D%23d5e8d4%3BstrokeColor%3D%2382b366%3B%22%20vertex%3D%221%22%20parent%3D%221%22%3E%3CmxGeometry%20x%3D%22500%22%20y%3D%22260%22%20width%3D%2295%22%20height%3D%2240%22%20as%3D%22geometry%22%2F%3E%3C%2FmxCell%3E%3CmxCell%20id%3D%2215%22%20value%3D%22%22%20style%3D%22rounded%3D0%3BwhiteSpace%3Dwrap%3Bhtml%3D1%3BfillColor%3D%23d5e8d4%3BstrokeColor%3D%2382b366%3B%22%20vertex%3D%221%22%20parent%3D%221%22%3E%3CmxGeometry%20x%3D%22110%22%20y%3D%22265%22%20width%3D%2295%22%20height%3D%2240%22%20as%3D%22geometry%22%2F%3E%3C%2FmxCell%3E%3CmxCell%20id%3D%2216%22%20value%3D%22Recep%C3%A7%C3%A3o%20de%20dados%22%20style%3D%22text%3Bhtml%3D1%3Balign%3Dcenter%3BverticalAlign%3Dmiddle%3BwhiteSpace%3Dwrap%3Brounded%3D0%3B%22%20vertex%3D%221%22%20parent%3D%221%22%3E%3CmxGeometry%20x%3D%22517.5%22%20y%3D%22265%22%20width%3D%2260%22%20height%3D%2230%22%20as%3D%22geometry%22%2F%3E%3C%2FmxCell%3E%3CmxCell%20id%3D%2217%22%20value%3D%22Corre%C3%A7%C3%A3o%20de%20Dados%22%20style%3D%22text%3Bhtml%3D1%3Balign%3Dcenter%3BverticalAlign%3Dmiddle%3BwhiteSpace%3Dwrap%3Brounded%3D0%3B%22%20vertex%3D%221%22%20parent%3D%221%22%3E%3CmxGeometry%20x%3D%22115%22%20y%3D%22270%22%20width%3D%2290%22%20height%3D%2230%22%20as%3D%22geometry%22%2F%3E%3C%2FmxCell%3E%3CmxCell%20id%3D%2218%22%20value%3D%22%22%20style%3D%22endArrow%3Dclassic%3Bhtml%3D1%3Brounded%3D0%3B%22%20edge%3D%221%22%20parent%3D%221%22%3E%3CmxGeometry%20width%3D%2250%22%20height%3D%2250%22%20relative%3D%221%22%20as%3D%22geometry%22%3E%3CmxPoint%20x%3D%22547%22%20y%3D%22300%22%20as%3D%22sourcePoint%22%2F%3E%3CmxPoint%20x%3D%22547%22%20y%3D%22370%22%20as%3D%22targetPoint%22%2F%3E%3C%2FmxGeometry%3E%3C%2FmxCell%3E%3CmxCell%20id%3D%2219%22%20value%3D%22Corte%20de%20Tecido%22%20style%3D%22text%3Bhtml%3D1%3Balign%3Dcenter%3BverticalAlign%3Dmiddle%3BwhiteSpace%3Dwrap%3Brounded%3D0%3B%22%20vertex%3D%221%22%20parent%3D%221%22%3E%3CmxGeometry%20x%3D%22517.5%22%20y%3D%22400%22%20width%3D%2260%22%20height%3D%2230%22%20as%3D%22geometry%22%2F%3E%3C%2FmxCell%3E%3CmxCell%20id%3D%2220%22%20value%3D%22%22%20style%3D%22rhombus%3BwhiteSpace%3Dwrap%3Bhtml%3D1%3BfillColor%3D%23fff2cc%3BstrokeColor%3D%23d6b656%3B%22%20vertex%3D%221%22%20parent%3D%221%22%3E%3CmxGeometry%20x%3D%22487.5%22%20y%3D%22370%22%20width%3D%22120%22%20height%3D%2290%22%20as%3D%22geometry%22%2F%3E%3C%2FmxCell%3E%3CmxCell%20id%3D%2221%22%20value%3D%22Consulta%20de%20Dados%20Existentes%26amp%3Bnbsp%3B%22%20style%3D%22text%3Bhtml%3D1%3Balign%3Dcenter%3BverticalAlign%3Dmiddle%3BwhiteSpace%3Dwrap%3Brounded%3D0%3B%22%20vertex%3D%221%22%20parent%3D%221%22%3E%3CmxGeometry%20x%3D%22517.5%22%20y%3D%22400%22%20width%3D%2260%22%20height%3D%2230%22%20as%3D%22geometry%22%2F%3E%3C%2FmxCell%3E%3CmxCell%20id%3D%2222%22%20value%3D%22%22%20style%3D%22endArrow%3Dclassic%3Bhtml%3D1%3Brounded%3D0%3BexitX%3D0.25%3BexitY%3D1%3BexitDx%3D0%3BexitDy%3D0%3B%22%20edge%3D%221%22%20parent%3D%221%22%3E%3CmxGeometry%20width%3D%2250%22%20height%3D%2250%22%20relative%3D%221%22%20as%3D%22geometry%22%3E%3CmxPoint%20x%3D%22487.5%22%20y%3D%22414.5%22%20as%3D%22sourcePoint%22%2F%3E%3CmxPoint%20x%3D%22487.5%22%20y%3D%22414.5%22%20as%3D%22targetPoint%22%2F%3E%3C%2FmxGeometry%3E%3C%2FmxCell%3E%3CmxCell%20id%3D%2223%22%20value%3D%22%22%20style%3D%22endArrow%3Dclassic%3Bhtml%3D1%3Brounded%3D0%3B%22%20edge%3D%221%22%20parent%3D%221%22%3E%3CmxGeometry%20width%3D%2250%22%20height%3D%2250%22%20relative%3D%221%22%20as%3D%22geometry%22%3E%3CmxPoint%20x%3D%22487.5%22%20y%3D%22414.5%22%20as%3D%22sourcePoint%22%2F%3E%3CmxPoint%20x%3D%22417.5%22%20y%3D%22414.5%22%20as%3D%22targetPoint%22%2F%3E%3C%2FmxGeometry%3E%3C%2FmxCell%3E%3CmxCell%20id%3D%2224%22%20value%3D%22Cliente%20j%C3%A1%20Cadastrado%22%20style%3D%22text%3Bhtml%3D1%3Balign%3Dcenter%3BverticalAlign%3Dmiddle%3BwhiteSpace%3Dwrap%3Brounded%3D0%3B%22%20vertex%3D%221%22%20parent%3D%221%22%3E%3CmxGeometry%20x%3D%22427.5%22%20y%3D%22380%22%20width%3D%2260%22%20height%3D%2230%22%20as%3D%22geometry%22%2F%3E%3C%2FmxCell%3E%3CmxCell%20id%3D%2225%22%20value%3D%22%22%20style%3D%22rounded%3D0%3BwhiteSpace%3Dwrap%3Bhtml%3D1%3BfillColor%3D%23d5e8d4%3BstrokeColor%3D%2382b366%3B%22%20vertex%3D%221%22%20parent%3D%221%22%3E%3CmxGeometry%20x%3D%22320%22%20y%3D%22395%22%20width%3D%2295%22%20height%3D%2240%22%20as%3D%22geometry%22%2F%3E%3C%2FmxCell%3E%3CmxCell%20id%3D%2226%22%20value%3D%22Atualizar%20Dados%26amp%3Bnbsp%3B%22%20style%3D%22text%3Bhtml%3D1%3Balign%3Dcenter%3BverticalAlign%3Dmiddle%3BwhiteSpace%3Dwrap%3Brounded%3D0%3B%22%20vertex%3D%221%22%20parent%3D%221%22%3E%3CmxGeometry%20x%3D%22337.5%22%20y%3D%22400%22%20width%3D%2260%22%20height%3D%2230%22%20as%3D%22geometry%22%2F%3E%3C%2FmxCell%3E%3CmxCell%20id%3D%2227%22%20value%3D%22%22%20style%3D%22endArrow%3Dclassic%3Bhtml%3D1%3Brounded%3D0%3B%22%20edge%3D%221%22%20parent%3D%221%22%3E%3CmxGeometry%20width%3D%2250%22%20height%3D%2250%22%20relative%3D%221%22%20as%3D%22geometry%22%3E%3CmxPoint%20x%3D%22607.5%22%20y%3D%22414.5%22%20as%3D%22sourcePoint%22%2F%3E%3CmxPoint%20x%3D%22687.5%22%20y%3D%22414.5%22%20as%3D%22targetPoint%22%2F%3E%3C%2FmxGeometry%3E%3C%2FmxCell%3E%3CmxCell%20id%3D%2228%22%20value%3D%22Cliente%20n%C3%A3o%20cadastrado%22%20style%3D%22text%3Bhtml%3D1%3Balign%3Dcenter%3BverticalAlign%3Dmiddle%3BwhiteSpace%3Dwrap%3Brounded%3D0%3B%22%20vertex%3D%221%22%20parent%3D%221%22%3E%3CmxGeometry%20x%3D%22597.5%22%20y%3D%22380%22%20width%3D%2292.5%22%20height%3D%2230%22%20as%3D%22geometry%22%2F%3E%3C%2FmxCell%3E%3CmxCell%20id%3D%2229%22%20value%3D%22%22%20style%3D%22rounded%3D0%3BwhiteSpace%3Dwrap%3Bhtml%3D1%3BfillColor%3D%23d5e8d4%3BstrokeColor%3D%2382b366%3B%22%20vertex%3D%221%22%20parent%3D%221%22%3E%3CmxGeometry%20x%3D%22690%22%20y%3D%22400%22%20width%3D%2295%22%20height%3D%2240%22%20as%3D%22geometry%22%2F%3E%3C%2FmxCell%3E%3CmxCell%20id%3D%2230%22%20value%3D%22Cadastrar%20Cliente%26amp%3Bnbsp%3B%22%20style%3D%22text%3Bhtml%3D1%3Balign%3Dcenter%3BverticalAlign%3Dmiddle%3BwhiteSpace%3Dwrap%3Brounded%3D0%3B%22%20vertex%3D%221%22%20parent%3D%221%22%3E%3CmxGeometry%20x%3D%22707.5%22%20y%3D%22405%22%20width%3D%2260%22%20height%3D%2230%22%20as%3D%22geometry%22%2F%3E%3C%2FmxCell%3E%3CmxCell%20id%3D%2231%22%20value%3D%22%22%20style%3D%22endArrow%3Dclassic%3Bhtml%3D1%3Brounded%3D0%3B%22%20edge%3D%221%22%20parent%3D%221%22%3E%3CmxGeometry%20width%3D%2250%22%20height%3D%2250%22%20relative%3D%221%22%20as%3D%22geometry%22%3E%3CmxPoint%20x%3D%22360%22%20y%3D%22435%22%20as%3D%22sourcePoint%22%2F%3E%3CmxPoint%20x%3D%22360%22%20y%3D%22505%22%20as%3D%22targetPoint%22%2F%3E%3C%2FmxGeometry%3E%3C%2FmxCell%3E%3CmxCell%20id%3D%2232%22%20value%3D%22%22%20style%3D%22rounded%3D0%3BwhiteSpace%3Dwrap%3Bhtml%3D1%3BfillColor%3D%23d5e8d4%3BstrokeColor%3D%2382b366%3B%22%20vertex%3D%221%22%20parent%3D%221%22%3E%3CmxGeometry%20x%3D%22315%22%20y%3D%22510%22%20width%3D%2295%22%20height%3D%2240%22%20as%3D%22geometry%22%2F%3E%3C%2FmxCell%3E%3CmxCell%20id%3D%2233%22%20value%3D%22Comfirma%C3%A7%C3%A3o%20de%20Cadastro%26amp%3Bnbsp%3B%22%20style%3D%22text%3Bhtml%3D1%3Balign%3Dcenter%3BverticalAlign%3Dmiddle%3BwhiteSpace%3Dwrap%3Brounded%3D0%3B%22%20vertex%3D%221%22%20parent%3D%221%22%3E%3CmxGeometry%20x%3D%22332.5%22%20y%3D%22515%22%20width%3D%2260%22%20height%3D%2230%22%20as%3D%22geometry%22%2F%3E%3C%2FmxCell%3E%3CmxCell%20id%3D%2234%22%20value%3D%22%22%20style%3D%22endArrow%3Dclassic%3Bhtml%3D1%3Brounded%3D0%3B%22%20edge%3D%221%22%20parent%3D%221%22%3E%3CmxGeometry%20width%3D%2250%22%20height%3D%2250%22%20relative%3D%221%22%20as%3D%22geometry%22%3E%3CmxPoint%20x%3D%22362%22%20y%3D%22550%22%20as%3D%22sourcePoint%22%2F%3E%3CmxPoint%20x%3D%22362%22%20y%3D%22630%22%20as%3D%22targetPoint%22%2F%3E%3C%2FmxGeometry%3E%3C%2FmxCell%3E%3CmxCell%20id%3D%2235%22%20value%3D%22%22%20style%3D%22rounded%3D0%3BwhiteSpace%3Dwrap%3Bhtml%3D1%3BfillColor%3D%23d5e8d4%3BstrokeColor%3D%2382b366%3B%22%20vertex%3D%221%22%20parent%3D%221%22%3E%3CmxGeometry%20x%3D%22315%22%20y%3D%22640%22%20width%3D%2295%22%20height%3D%2240%22%20as%3D%22geometry%22%2F%3E%3C%2FmxCell%3E%3CmxCell%20id%3D%2236%22%20value%3D%22Registro%20de%20Atividades%22%20style%3D%22text%3Bhtml%3D1%3Balign%3Dcenter%3BverticalAlign%3Dmiddle%3BwhiteSpace%3Dwrap%3Brounded%3D0%3B%22%20vertex%3D%221%22%20parent%3D%221%22%3E%3CmxGeometry%20x%3D%22326.25%22%20y%3D%22645%22%20width%3D%2282.5%22%20height%3D%2230%22%20as%3D%22geometry%22%2F%3E%3C%2FmxCell%3E%3CmxCell%20id%3D%2237%22%20value%3D%22%22%20style%3D%22endArrow%3Dclassic%3Bhtml%3D1%3Brounded%3D0%3B%22%20edge%3D%221%22%20parent%3D%221%22%3E%3CmxGeometry%20width%3D%2250%22%20height%3D%2250%22%20relative%3D%221%22%20as%3D%22geometry%22%3E%3CmxPoint%20x%3D%22362%22%20y%3D%22680%22%20as%3D%22sourcePoint%22%2F%3E%3CmxPoint%20x%3D%22362%22%20y%3D%22760%22%20as%3D%22targetPoint%22%2F%3E%3C%2FmxGeometry%3E%3C%2FmxCell%3E%3CmxCell%20id%3D%2238%22%20value%3D%22%22%20style%3D%22endArrow%3Dclassic%3Bhtml%3D1%3Brounded%3D0%3B%22%20edge%3D%221%22%20parent%3D%221%22%3E%3CmxGeometry%20width%3D%2250%22%20height%3D%2250%22%20relative%3D%221%22%20as%3D%22geometry%22%3E%3CmxPoint%20x%3D%22302.5%22%20y%3D%2219.5%22%20as%3D%22sourcePoint%22%2F%3E%3CmxPoint%20x%3D%22212.5%22%20y%3D%2220%22%20as%3D%22targetPoint%22%2F%3E%3C%2FmxGeometry%3E%3C%2FmxCell%3E%3CmxCell%20id%3D%2239%22%20value%3D%22%22%20style%3D%22ellipse%3BwhiteSpace%3Dwrap%3Bhtml%3D1%3BfillColor%3D%23e1d5e7%3BstrokeColor%3D%239673a6%3B%22%20vertex%3D%221%22%20parent%3D%221%22%3E%3CmxGeometry%20x%3D%22120%22%20y%3D%22-10%22%20width%3D%2285%22%20height%3D%2260%22%20as%3D%22geometry%22%2F%3E%3C%2FmxCell%3E%3CmxCell%20id%3D%2240%22%20value%3D%22inicio%22%20style%3D%22text%3Bhtml%3D1%3Balign%3Dcenter%3BverticalAlign%3Dmiddle%3BwhiteSpace%3Dwrap%3Brounded%3D0%3B%22%20vertex%3D%221%22%20parent%3D%221%22%3E%3CmxGeometry%20x%3D%22132.5%22%20y%3D%225%22%20width%3D%2260%22%20height%3D%2230%22%20as%3D%22geometry%22%2F%3E%3C%2FmxCell%3E%3CmxCell%20id%3D%2241%22%20value%3D%22%22%20style%3D%22ellipse%3BwhiteSpace%3Dwrap%3Bhtml%3D1%3BfillColor%3D%23e1d5e7%3BstrokeColor%3D%239673a6%3B%22%20vertex%3D%221%22%20parent%3D%221%22%3E%3CmxGeometry%20x%3D%22317.5%22%20y%3D%22770%22%20width%3D%2290%22%20height%3D%2260%22%20as%3D%22geometry%22%2F%3E%3C%2FmxCell%3E%3CmxCell%20id%3D%2242%22%20value%3D%22FIm%22%20style%3D%22text%3Bhtml%3D1%3Balign%3Dcenter%3BverticalAlign%3Dmiddle%3BwhiteSpace%3Dwrap%3Brounded%3D0%3B%22%20vertex%3D%221%22%20parent%3D%221%22%3E%3CmxGeometry%20x%3D%22332.5%22%20y%3D%22785%22%20width%3D%2260%22%20height%3D%2230%22%20as%3D%22geometry%22%2F%3E%3C%2FmxCell%3E%3C%2Froot%3E%3C%2FmxGraphModel%3Eolt&lt;/span&gt;" style="text;html=1;align=center;verticalAlign=middle;whiteSpace=wrap;rounded=0;" vertex="1" parent="1">
          <mxGeometry x="517.5" y="265" width="60" height="30" as="geometry" />
        </mxCell>
        <mxCell id="A1fCGlSLNSyYVTEeg8kQ-16" value="Exibir Mensagem de Erro" style="text;html=1;align=center;verticalAlign=middle;whiteSpace=wrap;rounded=0;" vertex="1" parent="1">
          <mxGeometry x="115" y="270" width="90" height="30" as="geometry" />
        </mxCell>
        <mxCell id="A1fCGlSLNSyYVTEeg8kQ-17" value="" style="endArrow=classic;html=1;rounded=0;" edge="1" parent="1">
          <mxGeometry width="50" height="50" relative="1" as="geometry">
            <mxPoint x="547" y="300" as="sourcePoint" />
            <mxPoint x="547" y="370" as="targetPoint" />
          </mxGeometry>
        </mxCell>
        <mxCell id="A1fCGlSLNSyYVTEeg8kQ-18" value="" style="rhombus;whiteSpace=wrap;html=1;fillColor=#fff2cc;strokeColor=#d6b656;" vertex="1" parent="1">
          <mxGeometry x="488.75" y="500" width="120" height="90" as="geometry" />
        </mxCell>
        <mxCell id="A1fCGlSLNSyYVTEeg8kQ-19" value="" style="endArrow=classic;html=1;rounded=0;exitX=0.25;exitY=1;exitDx=0;exitDy=0;" edge="1" parent="1">
          <mxGeometry width="50" height="50" relative="1" as="geometry">
            <mxPoint x="487.5" y="414.5" as="sourcePoint" />
            <mxPoint x="487.5" y="414.5" as="targetPoint" />
          </mxGeometry>
        </mxCell>
        <mxCell id="A1fCGlSLNSyYVTEeg8kQ-20" value="Comfirmação da deletação?" style="text;html=1;align=center;verticalAlign=middle;whiteSpace=wrap;rounded=0;" vertex="1" parent="1">
          <mxGeometry x="518.75" y="530" width="60" height="30" as="geometry" />
        </mxCell>
        <mxCell id="A1fCGlSLNSyYVTEeg8kQ-21" value="" style="rounded=0;whiteSpace=wrap;html=1;fillColor=#d5e8d4;strokeColor=#82b366;" vertex="1" parent="1">
          <mxGeometry x="302.5" y="520" width="95" height="40" as="geometry" />
        </mxCell>
        <mxCell id="A1fCGlSLNSyYVTEeg8kQ-22" value="" style="endArrow=classic;html=1;rounded=0;" edge="1" parent="1">
          <mxGeometry width="50" height="50" relative="1" as="geometry">
            <mxPoint x="608.75" y="544.5" as="sourcePoint" />
            <mxPoint x="688.75" y="544.5" as="targetPoint" />
          </mxGeometry>
        </mxCell>
        <mxCell id="A1fCGlSLNSyYVTEeg8kQ-23" value="Cliente não cadastrado" style="text;html=1;align=center;verticalAlign=middle;whiteSpace=wrap;rounded=0;" vertex="1" parent="1">
          <mxGeometry x="500" y="375" width="92.5" height="30" as="geometry" />
        </mxCell>
        <mxCell id="A1fCGlSLNSyYVTEeg8kQ-24" value="" style="rounded=0;whiteSpace=wrap;html=1;fillColor=#d5e8d4;strokeColor=#82b366;" vertex="1" parent="1">
          <mxGeometry x="690" y="525" width="95" height="40" as="geometry" />
        </mxCell>
        <mxCell id="A1fCGlSLNSyYVTEeg8kQ-25" value="Cancelar e encerrar processo&lt;div&gt;&lt;br&gt;&lt;/div&gt;" style="text;html=1;align=center;verticalAlign=middle;whiteSpace=wrap;rounded=0;" vertex="1" parent="1">
          <mxGeometry x="687.5" y="535" width="100" height="30" as="geometry" />
        </mxCell>
        <mxCell id="A1fCGlSLNSyYVTEeg8kQ-26" value="" style="endArrow=classic;html=1;rounded=0;" edge="1" parent="1">
          <mxGeometry width="50" height="50" relative="1" as="geometry">
            <mxPoint x="548.25" y="410" as="sourcePoint" />
            <mxPoint x="548.25" y="490" as="targetPoint" />
          </mxGeometry>
        </mxCell>
        <mxCell id="A1fCGlSLNSyYVTEeg8kQ-27" value="" style="endArrow=classic;html=1;rounded=0;" edge="1" parent="1">
          <mxGeometry width="50" height="50" relative="1" as="geometry">
            <mxPoint x="302.5" y="19.5" as="sourcePoint" />
            <mxPoint x="212.5" y="20" as="targetPoint" />
          </mxGeometry>
        </mxCell>
        <mxCell id="A1fCGlSLNSyYVTEeg8kQ-28" value="" style="ellipse;whiteSpace=wrap;html=1;fillColor=#e1d5e7;strokeColor=#9673a6;" vertex="1" parent="1">
          <mxGeometry x="120" y="-10" width="85" height="60" as="geometry" />
        </mxCell>
        <mxCell id="A1fCGlSLNSyYVTEeg8kQ-29" value="inicio" style="text;html=1;align=center;verticalAlign=middle;whiteSpace=wrap;rounded=0;" vertex="1" parent="1">
          <mxGeometry x="132.5" y="5" width="60" height="30" as="geometry" />
        </mxCell>
        <mxCell id="A1fCGlSLNSyYVTEeg8kQ-30" value="" style="ellipse;whiteSpace=wrap;html=1;fillColor=#e1d5e7;strokeColor=#9673a6;" vertex="1" parent="1">
          <mxGeometry x="115" y="810" width="90" height="60" as="geometry" />
        </mxCell>
        <mxCell id="A1fCGlSLNSyYVTEeg8kQ-31" value="Exibir dados do cliente" style="text;html=1;align=center;verticalAlign=middle;whiteSpace=wrap;rounded=0;" vertex="1" parent="1">
          <mxGeometry x="517.5" y="265" width="60" height="30" as="geometry" />
        </mxCell>
        <mxCell id="A1fCGlSLNSyYVTEeg8kQ-32" value="" style="rounded=0;whiteSpace=wrap;html=1;fillColor=#d5e8d4;strokeColor=#82b366;" vertex="1" parent="1">
          <mxGeometry x="500" y="370" width="95" height="40" as="geometry" />
        </mxCell>
        <mxCell id="A1fCGlSLNSyYVTEeg8kQ-33" value="Comfirmar Deletação" style="text;html=1;align=center;verticalAlign=middle;whiteSpace=wrap;rounded=0;" vertex="1" parent="1">
          <mxGeometry x="502.5" y="375" width="92.5" height="30" as="geometry" />
        </mxCell>
        <mxCell id="A1fCGlSLNSyYVTEeg8kQ-34" value="Não" style="text;html=1;align=center;verticalAlign=middle;whiteSpace=wrap;rounded=0;" vertex="1" parent="1">
          <mxGeometry x="620" y="520" width="60" height="30" as="geometry" />
        </mxCell>
        <mxCell id="A1fCGlSLNSyYVTEeg8kQ-35" value="" style="endArrow=classic;html=1;rounded=0;" edge="1" parent="1">
          <mxGeometry width="50" height="50" relative="1" as="geometry">
            <mxPoint x="487.5" y="544.5" as="sourcePoint" />
            <mxPoint x="410" y="545" as="targetPoint" />
          </mxGeometry>
        </mxCell>
        <mxCell id="A1fCGlSLNSyYVTEeg8kQ-36" value="Sim" style="text;html=1;align=center;verticalAlign=middle;whiteSpace=wrap;rounded=0;" vertex="1" parent="1">
          <mxGeometry x="427.5" y="520" width="60" height="30" as="geometry" />
        </mxCell>
        <mxCell id="A1fCGlSLNSyYVTEeg8kQ-37" value="Deletar dados do cliente&amp;nbsp;" style="text;html=1;align=center;verticalAlign=middle;whiteSpace=wrap;rounded=0;" vertex="1" parent="1">
          <mxGeometry x="305" y="525" width="92.5" height="30" as="geometry" />
        </mxCell>
        <mxCell id="A1fCGlSLNSyYVTEeg8kQ-38" value="" style="endArrow=classic;html=1;rounded=0;" edge="1" parent="1">
          <mxGeometry width="50" height="50" relative="1" as="geometry">
            <mxPoint x="340" y="560" as="sourcePoint" />
            <mxPoint x="340" y="640" as="targetPoint" />
          </mxGeometry>
        </mxCell>
        <mxCell id="A1fCGlSLNSyYVTEeg8kQ-39" value="" style="rhombus;whiteSpace=wrap;html=1;fillColor=#fff2cc;strokeColor=#d6b656;" vertex="1" parent="1">
          <mxGeometry x="280" y="650" width="120" height="90" as="geometry" />
        </mxCell>
        <mxCell id="A1fCGlSLNSyYVTEeg8kQ-40" value="Deletação bem-sucedida?" style="text;html=1;align=center;verticalAlign=middle;whiteSpace=wrap;rounded=0;" vertex="1" parent="1">
          <mxGeometry x="310" y="680" width="60" height="30" as="geometry" />
        </mxCell>
        <mxCell id="A1fCGlSLNSyYVTEeg8kQ-41" value="" style="endArrow=classic;html=1;rounded=0;" edge="1" parent="1">
          <mxGeometry width="50" height="50" relative="1" as="geometry">
            <mxPoint x="400" y="694.5" as="sourcePoint" />
            <mxPoint x="490" y="694.5" as="targetPoint" />
          </mxGeometry>
        </mxCell>
        <mxCell id="A1fCGlSLNSyYVTEeg8kQ-42" value="Não" style="text;html=1;align=center;verticalAlign=middle;whiteSpace=wrap;rounded=0;" vertex="1" parent="1">
          <mxGeometry x="410" y="670" width="60" height="30" as="geometry" />
        </mxCell>
        <mxCell id="A1fCGlSLNSyYVTEeg8kQ-43" value="" style="rounded=0;whiteSpace=wrap;html=1;fillColor=#d5e8d4;strokeColor=#82b366;" vertex="1" parent="1">
          <mxGeometry x="497.5" y="675" width="142.5" height="45" as="geometry" />
        </mxCell>
        <mxCell id="A1fCGlSLNSyYVTEeg8kQ-44" value="Exibir Mensagem de erro e encerrar processo" style="text;html=1;align=center;verticalAlign=middle;whiteSpace=wrap;rounded=0;" vertex="1" parent="1">
          <mxGeometry x="502.5" y="680" width="137.5" height="30" as="geometry" />
        </mxCell>
        <mxCell id="A1fCGlSLNSyYVTEeg8kQ-45" value="" style="endArrow=classic;html=1;rounded=0;" edge="1" parent="1">
          <mxGeometry width="50" height="50" relative="1" as="geometry">
            <mxPoint x="280" y="694.5" as="sourcePoint" />
            <mxPoint x="217.5" y="694.69" as="targetPoint" />
          </mxGeometry>
        </mxCell>
        <mxCell id="A1fCGlSLNSyYVTEeg8kQ-46" value="Deletar dados do cliente&amp;nbsp;" style="text;html=1;align=center;verticalAlign=middle;whiteSpace=wrap;rounded=0;" vertex="1" parent="1">
          <mxGeometry x="117.5" y="682.5" width="92.5" height="30" as="geometry" />
        </mxCell>
        <mxCell id="A1fCGlSLNSyYVTEeg8kQ-47" value="" style="rounded=0;whiteSpace=wrap;html=1;fillColor=#d5e8d4;strokeColor=#82b366;" vertex="1" parent="1">
          <mxGeometry x="115" y="677.5" width="95" height="40" as="geometry" />
        </mxCell>
        <mxCell id="A1fCGlSLNSyYVTEeg8kQ-48" value="Exibir mensagem de Sucesso" style="text;html=1;align=center;verticalAlign=middle;whiteSpace=wrap;rounded=0;" vertex="1" parent="1">
          <mxGeometry x="120" y="682.5" width="92.5" height="30" as="geometry" />
        </mxCell>
        <mxCell id="A1fCGlSLNSyYVTEeg8kQ-49" value="Sim" style="text;html=1;align=center;verticalAlign=middle;whiteSpace=wrap;rounded=0;" vertex="1" parent="1">
          <mxGeometry x="220" y="670" width="60" height="30" as="geometry" />
        </mxCell>
        <mxCell id="A1fCGlSLNSyYVTEeg8kQ-50" value="" style="endArrow=classic;html=1;rounded=0;" edge="1" parent="1">
          <mxGeometry width="50" height="50" relative="1" as="geometry">
            <mxPoint x="162" y="717.5" as="sourcePoint" />
            <mxPoint x="162" y="797.5" as="targetPoint" />
          </mxGeometry>
        </mxCell>
        <mxCell id="A1fCGlSLNSyYVTEeg8kQ-51" value="Fim" style="text;html=1;align=center;verticalAlign=middle;whiteSpace=wrap;rounded=0;" vertex="1" parent="1">
          <mxGeometry x="120" y="817.5" width="80" height="45" as="geometry" />
        </mxCell>
        <mxCell id="A1fCGlSLNSyYVTEeg8kQ-52" style="edgeStyle=orthogonalEdgeStyle;rounded=0;orthogonalLoop=1;jettySize=auto;html=1;exitX=0.5;exitY=1;exitDx=0;exitDy=0;" edge="1" parent="1" source="A1fCGlSLNSyYVTEeg8kQ-51" target="A1fCGlSLNSyYVTEeg8kQ-51">
          <mxGeometry relative="1" as="geometry" />
        </mxCell>
      </root>
    </mxGraphModel>
  </diagram>
  <diagram id="cUnpMUbk8K0Ot3EFci4I" name="Notificaçaõ ao cliente">
    <mxGraphModel dx="1434" dy="1951" grid="1" gridSize="10" guides="1" tooltips="1" connect="1" arrows="1" fold="1" page="1" pageScale="1" pageWidth="827" pageHeight="1169" math="0" shadow="0">
      <root>
        <mxCell id="0" />
        <mxCell id="1" parent="0" />
        <mxCell id="9U9EcaoJvpD9vKmyw7PU-1" value="" style="rounded=0;whiteSpace=wrap;html=1;fillColor=#d5e8d4;strokeColor=#82b366;" vertex="1" parent="1">
          <mxGeometry x="302.5" width="95" height="40" as="geometry" />
        </mxCell>
        <mxCell id="9U9EcaoJvpD9vKmyw7PU-2" value="Solicitar Id do Cliente&amp;nbsp;" style="text;html=1;align=center;verticalAlign=middle;whiteSpace=wrap;rounded=0;" vertex="1" parent="1">
          <mxGeometry x="320" y="5" width="60" height="30" as="geometry" />
        </mxCell>
        <mxCell id="9U9EcaoJvpD9vKmyw7PU-3" value="" style="rounded=0;whiteSpace=wrap;html=1;fillColor=#d5e8d4;strokeColor=#82b366;" vertex="1" parent="1">
          <mxGeometry x="302.5" y="120" width="95" height="40" as="geometry" />
        </mxCell>
        <mxCell id="9U9EcaoJvpD9vKmyw7PU-4" value="Validar Id do Cliente&amp;nbsp;" style="text;html=1;align=center;verticalAlign=middle;whiteSpace=wrap;rounded=0;" vertex="1" parent="1">
          <mxGeometry x="320" y="125" width="60" height="30" as="geometry" />
        </mxCell>
        <mxCell id="9U9EcaoJvpD9vKmyw7PU-5" value="" style="endArrow=classic;html=1;rounded=0;" edge="1" parent="1">
          <mxGeometry width="50" height="50" relative="1" as="geometry">
            <mxPoint x="349.5" y="40" as="sourcePoint" />
            <mxPoint x="349.5" y="110" as="targetPoint" />
          </mxGeometry>
        </mxCell>
        <mxCell id="9U9EcaoJvpD9vKmyw7PU-6" value="" style="endArrow=classic;html=1;rounded=0;" edge="1" parent="1">
          <mxGeometry width="50" height="50" relative="1" as="geometry">
            <mxPoint x="349.5" y="160" as="sourcePoint" />
            <mxPoint x="349.5" y="230" as="targetPoint" />
          </mxGeometry>
        </mxCell>
        <mxCell id="9U9EcaoJvpD9vKmyw7PU-7" value="" style="rhombus;whiteSpace=wrap;html=1;fillColor=#fff2cc;strokeColor=#d6b656;" vertex="1" parent="1">
          <mxGeometry x="290" y="240" width="120" height="90" as="geometry" />
        </mxCell>
        <mxCell id="9U9EcaoJvpD9vKmyw7PU-8" value="Id Valido ?" style="text;html=1;align=center;verticalAlign=middle;whiteSpace=wrap;rounded=0;" vertex="1" parent="1">
          <mxGeometry x="320" y="270" width="60" height="30" as="geometry" />
        </mxCell>
        <mxCell id="9U9EcaoJvpD9vKmyw7PU-9" value="" style="endArrow=classic;html=1;rounded=0;exitX=1;exitY=0.5;exitDx=0;exitDy=0;" edge="1" parent="1" source="9U9EcaoJvpD9vKmyw7PU-7">
          <mxGeometry width="50" height="50" relative="1" as="geometry">
            <mxPoint x="423.5" y="280" as="sourcePoint" />
            <mxPoint x="493.5" y="280" as="targetPoint" />
          </mxGeometry>
        </mxCell>
        <mxCell id="9U9EcaoJvpD9vKmyw7PU-10" value="" style="endArrow=classic;html=1;rounded=0;exitX=0;exitY=0.5;exitDx=0;exitDy=0;" edge="1" parent="1" source="9U9EcaoJvpD9vKmyw7PU-7">
          <mxGeometry width="50" height="50" relative="1" as="geometry">
            <mxPoint x="280" y="280.19" as="sourcePoint" />
            <mxPoint x="210" y="280" as="targetPoint" />
          </mxGeometry>
        </mxCell>
        <mxCell id="9U9EcaoJvpD9vKmyw7PU-11" value="Sim" style="text;html=1;align=center;verticalAlign=middle;whiteSpace=wrap;rounded=0;" vertex="1" parent="1">
          <mxGeometry x="414" y="250" width="60" height="30" as="geometry" />
        </mxCell>
        <mxCell id="9U9EcaoJvpD9vKmyw7PU-12" value="Não" style="text;html=1;align=center;verticalAlign=middle;whiteSpace=wrap;rounded=0;" vertex="1" parent="1">
          <mxGeometry x="230" y="250" width="60" height="30" as="geometry" />
        </mxCell>
        <mxCell id="9U9EcaoJvpD9vKmyw7PU-13" value="" style="rounded=0;whiteSpace=wrap;html=1;fillColor=#d5e8d4;strokeColor=#82b366;" vertex="1" parent="1">
          <mxGeometry x="500" y="260" width="95" height="40" as="geometry" />
        </mxCell>
        <mxCell id="9U9EcaoJvpD9vKmyw7PU-14" value="" style="rounded=0;whiteSpace=wrap;html=1;fillColor=#d5e8d4;strokeColor=#82b366;" vertex="1" parent="1">
          <mxGeometry x="110" y="265" width="95" height="40" as="geometry" />
        </mxCell>
        <mxCell id="9U9EcaoJvpD9vKmyw7PU-15" value="&lt;span style=&quot;color: rgba(0, 0, 0, 0); font-family: monospace; font-size: 0px; text-align: start; text-wrap: nowrap;&quot;&gt;%3CmxGraphModel%3E%3Croot%3E%3CmxCell%20id%3D%220%22%2F%3E%3CmxCell%20id%3D%221%22%20parent%3D%220%22%2F%3E%3CmxCell%20id%3D%222%22%20value%3D%22%22%20style%3D%22rounded%3D0%3BwhiteSpace%3Dwrap%3Bhtml%3D1%3BfillColor%3D%23d5e8d4%3BstrokeColor%3D%2382b366%3B%22%20vertex%3D%221%22%20parent%3D%221%22%3E%3CmxGeometry%20x%3D%22302.5%22%20width%3D%2295%22%20height%3D%2240%22%20as%3D%22geometry%22%2F%3E%3C%2FmxCell%3E%3CmxCell%20id%3D%223%22%20value%3D%22Inicio%20do%20Cadastramento%22%20style%3D%22text%3Bhtml%3D1%3Balign%3Dcenter%3BverticalAlign%3Dmiddle%3BwhiteSpace%3Dwrap%3Brounded%3D0%3B%22%20vertex%3D%221%22%20parent%3D%221%22%3E%3CmxGeometry%20x%3D%22320%22%20y%3D%225%22%20width%3D%2260%22%20height%3D%2230%22%20as%3D%22geometry%22%2F%3E%3C%2FmxCell%3E%3CmxCell%20id%3D%224%22%20value%3D%22%22%20style%3D%22rounded%3D0%3BwhiteSpace%3Dwrap%3Bhtml%3D1%3BfillColor%3D%23d5e8d4%3BstrokeColor%3D%2382b366%3B%22%20vertex%3D%221%22%20parent%3D%221%22%3E%3CmxGeometry%20x%3D%22302.5%22%20y%3D%22120%22%20width%3D%2295%22%20height%3D%2240%22%20as%3D%22geometry%22%2F%3E%3C%2FmxCell%3E%3CmxCell%20id%3D%225%22%20value%3D%22Capta%C3%A7%C3%A3o%20de%20Dados%26amp%3Bnbsp%3B%22%20style%3D%22text%3Bhtml%3D1%3Balign%3Dcenter%3BverticalAlign%3Dmiddle%3BwhiteSpace%3Dwrap%3Brounded%3D0%3B%22%20vertex%3D%221%22%20parent%3D%221%22%3E%3CmxGeometry%20x%3D%22320%22%20y%3D%22125%22%20width%3D%2260%22%20height%3D%2230%22%20as%3D%22geometry%22%2F%3E%3C%2FmxCell%3E%3CmxCell%20id%3D%226%22%20value%3D%22%22%20style%3D%22endArrow%3Dclassic%3Bhtml%3D1%3Brounded%3D0%3B%22%20edge%3D%221%22%20parent%3D%221%22%3E%3CmxGeometry%20width%3D%2250%22%20height%3D%2250%22%20relative%3D%221%22%20as%3D%22geometry%22%3E%3CmxPoint%20x%3D%22349.5%22%20y%3D%2240%22%20as%3D%22sourcePoint%22%2F%3E%3CmxPoint%20x%3D%22349.5%22%20y%3D%22110%22%20as%3D%22targetPoint%22%2F%3E%3C%2FmxGeometry%3E%3C%2FmxCell%3E%3CmxCell%20id%3D%227%22%20value%3D%22%22%20style%3D%22endArrow%3Dclassic%3Bhtml%3D1%3Brounded%3D0%3B%22%20edge%3D%221%22%20parent%3D%221%22%3E%3CmxGeometry%20width%3D%2250%22%20height%3D%2250%22%20relative%3D%221%22%20as%3D%22geometry%22%3E%3CmxPoint%20x%3D%22349.5%22%20y%3D%22160%22%20as%3D%22sourcePoint%22%2F%3E%3CmxPoint%20x%3D%22349.5%22%20y%3D%22230%22%20as%3D%22targetPoint%22%2F%3E%3C%2FmxGeometry%3E%3C%2FmxCell%3E%3CmxCell%20id%3D%228%22%20value%3D%22%22%20style%3D%22rhombus%3BwhiteSpace%3Dwrap%3Bhtml%3D1%3BfillColor%3D%23fff2cc%3BstrokeColor%3D%23d6b656%3B%22%20vertex%3D%221%22%20parent%3D%221%22%3E%3CmxGeometry%20x%3D%22290%22%20y%3D%22240%22%20width%3D%22120%22%20height%3D%2290%22%20as%3D%22geometry%22%2F%3E%3C%2FmxCell%3E%3CmxCell%20id%3D%229%22%20value%3D%22Verifica%C3%A7%C3%A3o%20de%20Dados%26amp%3Bnbsp%3B%22%20style%3D%22text%3Bhtml%3D1%3Balign%3Dcenter%3BverticalAlign%3Dmiddle%3BwhiteSpace%3Dwrap%3Brounded%3D0%3B%22%20vertex%3D%221%22%20parent%3D%221%22%3E%3CmxGeometry%20x%3D%22320%22%20y%3D%22270%22%20width%3D%2260%22%20height%3D%2230%22%20as%3D%22geometry%22%2F%3E%3C%2FmxCell%3E%3CmxCell%20id%3D%2210%22%20value%3D%22%22%20style%3D%22endArrow%3Dclassic%3Bhtml%3D1%3Brounded%3D0%3BexitX%3D1%3BexitY%3D0.5%3BexitDx%3D0%3BexitDy%3D0%3B%22%20edge%3D%221%22%20source%3D%228%22%20parent%3D%221%22%3E%3CmxGeometry%20width%3D%2250%22%20height%3D%2250%22%20relative%3D%221%22%20as%3D%22geometry%22%3E%3CmxPoint%20x%3D%22423.5%22%20y%3D%22280%22%20as%3D%22sourcePoint%22%2F%3E%3CmxPoint%20x%3D%22493.5%22%20y%3D%22280%22%20as%3D%22targetPoint%22%2F%3E%3C%2FmxGeometry%3E%3C%2FmxCell%3E%3CmxCell%20id%3D%2211%22%20value%3D%22%22%20style%3D%22endArrow%3Dclassic%3Bhtml%3D1%3Brounded%3D0%3BexitX%3D0%3BexitY%3D0.5%3BexitDx%3D0%3BexitDy%3D0%3B%22%20edge%3D%221%22%20source%3D%228%22%20parent%3D%221%22%3E%3CmxGeometry%20width%3D%2250%22%20height%3D%2250%22%20relative%3D%221%22%20as%3D%22geometry%22%3E%3CmxPoint%20x%3D%22280%22%20y%3D%22280.19%22%20as%3D%22sourcePoint%22%2F%3E%3CmxPoint%20x%3D%22210%22%20y%3D%22280%22%20as%3D%22targetPoint%22%2F%3E%3C%2FmxGeometry%3E%3C%2FmxCell%3E%3CmxCell%20id%3D%2212%22%20value%3D%22Corre%C3%A7%C3%A3o%20de%20dados%22%20style%3D%22text%3Bhtml%3D1%3Balign%3Dcenter%3BverticalAlign%3Dmiddle%3BwhiteSpace%3Dwrap%3Brounded%3D0%3B%22%20vertex%3D%221%22%20parent%3D%221%22%3E%3CmxGeometry%20x%3D%22414%22%20y%3D%22250%22%20width%3D%2260%22%20height%3D%2230%22%20as%3D%22geometry%22%2F%3E%3C%2FmxCell%3E%3CmxCell%20id%3D%2213%22%20value%3D%22dados%20Invalidos%22%20style%3D%22text%3Bhtml%3D1%3Balign%3Dcenter%3BverticalAlign%3Dmiddle%3BwhiteSpace%3Dwrap%3Brounded%3D0%3B%22%20vertex%3D%221%22%20parent%3D%221%22%3E%3CmxGeometry%20x%3D%22230%22%20y%3D%22250%22%20width%3D%2260%22%20height%3D%2230%22%20as%3D%22geometry%22%2F%3E%3C%2FmxCell%3E%3CmxCell%20id%3D%2214%22%20value%3D%22%22%20style%3D%22rounded%3D0%3BwhiteSpace%3Dwrap%3Bhtml%3D1%3BfillColor%3D%23d5e8d4%3BstrokeColor%3D%2382b366%3B%22%20vertex%3D%221%22%20parent%3D%221%22%3E%3CmxGeometry%20x%3D%22500%22%20y%3D%22260%22%20width%3D%2295%22%20height%3D%2240%22%20as%3D%22geometry%22%2F%3E%3C%2FmxCell%3E%3CmxCell%20id%3D%2215%22%20value%3D%22%22%20style%3D%22rounded%3D0%3BwhiteSpace%3Dwrap%3Bhtml%3D1%3BfillColor%3D%23d5e8d4%3BstrokeColor%3D%2382b366%3B%22%20vertex%3D%221%22%20parent%3D%221%22%3E%3CmxGeometry%20x%3D%22110%22%20y%3D%22265%22%20width%3D%2295%22%20height%3D%2240%22%20as%3D%22geometry%22%2F%3E%3C%2FmxCell%3E%3CmxCell%20id%3D%2216%22%20value%3D%22Recep%C3%A7%C3%A3o%20de%20dados%22%20style%3D%22text%3Bhtml%3D1%3Balign%3Dcenter%3BverticalAlign%3Dmiddle%3BwhiteSpace%3Dwrap%3Brounded%3D0%3B%22%20vertex%3D%221%22%20parent%3D%221%22%3E%3CmxGeometry%20x%3D%22517.5%22%20y%3D%22265%22%20width%3D%2260%22%20height%3D%2230%22%20as%3D%22geometry%22%2F%3E%3C%2FmxCell%3E%3CmxCell%20id%3D%2217%22%20value%3D%22Corre%C3%A7%C3%A3o%20de%20Dados%22%20style%3D%22text%3Bhtml%3D1%3Balign%3Dcenter%3BverticalAlign%3Dmiddle%3BwhiteSpace%3Dwrap%3Brounded%3D0%3B%22%20vertex%3D%221%22%20parent%3D%221%22%3E%3CmxGeometry%20x%3D%22115%22%20y%3D%22270%22%20width%3D%2290%22%20height%3D%2230%22%20as%3D%22geometry%22%2F%3E%3C%2FmxCell%3E%3CmxCell%20id%3D%2218%22%20value%3D%22%22%20style%3D%22endArrow%3Dclassic%3Bhtml%3D1%3Brounded%3D0%3B%22%20edge%3D%221%22%20parent%3D%221%22%3E%3CmxGeometry%20width%3D%2250%22%20height%3D%2250%22%20relative%3D%221%22%20as%3D%22geometry%22%3E%3CmxPoint%20x%3D%22547%22%20y%3D%22300%22%20as%3D%22sourcePoint%22%2F%3E%3CmxPoint%20x%3D%22547%22%20y%3D%22370%22%20as%3D%22targetPoint%22%2F%3E%3C%2FmxGeometry%3E%3C%2FmxCell%3E%3CmxCell%20id%3D%2219%22%20value%3D%22Corte%20de%20Tecido%22%20style%3D%22text%3Bhtml%3D1%3Balign%3Dcenter%3BverticalAlign%3Dmiddle%3BwhiteSpace%3Dwrap%3Brounded%3D0%3B%22%20vertex%3D%221%22%20parent%3D%221%22%3E%3CmxGeometry%20x%3D%22517.5%22%20y%3D%22400%22%20width%3D%2260%22%20height%3D%2230%22%20as%3D%22geometry%22%2F%3E%3C%2FmxCell%3E%3CmxCell%20id%3D%2220%22%20value%3D%22%22%20style%3D%22rhombus%3BwhiteSpace%3Dwrap%3Bhtml%3D1%3BfillColor%3D%23fff2cc%3BstrokeColor%3D%23d6b656%3B%22%20vertex%3D%221%22%20parent%3D%221%22%3E%3CmxGeometry%20x%3D%22487.5%22%20y%3D%22370%22%20width%3D%22120%22%20height%3D%2290%22%20as%3D%22geometry%22%2F%3E%3C%2FmxCell%3E%3CmxCell%20id%3D%2221%22%20value%3D%22Consulta%20de%20Dados%20Existentes%26amp%3Bnbsp%3B%22%20style%3D%22text%3Bhtml%3D1%3Balign%3Dcenter%3BverticalAlign%3Dmiddle%3BwhiteSpace%3Dwrap%3Brounded%3D0%3B%22%20vertex%3D%221%22%20parent%3D%221%22%3E%3CmxGeometry%20x%3D%22517.5%22%20y%3D%22400%22%20width%3D%2260%22%20height%3D%2230%22%20as%3D%22geometry%22%2F%3E%3C%2FmxCell%3E%3CmxCell%20id%3D%2222%22%20value%3D%22%22%20style%3D%22endArrow%3Dclassic%3Bhtml%3D1%3Brounded%3D0%3BexitX%3D0.25%3BexitY%3D1%3BexitDx%3D0%3BexitDy%3D0%3B%22%20edge%3D%221%22%20parent%3D%221%22%3E%3CmxGeometry%20width%3D%2250%22%20height%3D%2250%22%20relative%3D%221%22%20as%3D%22geometry%22%3E%3CmxPoint%20x%3D%22487.5%22%20y%3D%22414.5%22%20as%3D%22sourcePoint%22%2F%3E%3CmxPoint%20x%3D%22487.5%22%20y%3D%22414.5%22%20as%3D%22targetPoint%22%2F%3E%3C%2FmxGeometry%3E%3C%2FmxCell%3E%3CmxCell%20id%3D%2223%22%20value%3D%22%22%20style%3D%22endArrow%3Dclassic%3Bhtml%3D1%3Brounded%3D0%3B%22%20edge%3D%221%22%20parent%3D%221%22%3E%3CmxGeometry%20width%3D%2250%22%20height%3D%2250%22%20relative%3D%221%22%20as%3D%22geometry%22%3E%3CmxPoint%20x%3D%22487.5%22%20y%3D%22414.5%22%20as%3D%22sourcePoint%22%2F%3E%3CmxPoint%20x%3D%22417.5%22%20y%3D%22414.5%22%20as%3D%22targetPoint%22%2F%3E%3C%2FmxGeometry%3E%3C%2FmxCell%3E%3CmxCell%20id%3D%2224%22%20value%3D%22Cliente%20j%C3%A1%20Cadastrado%22%20style%3D%22text%3Bhtml%3D1%3Balign%3Dcenter%3BverticalAlign%3Dmiddle%3BwhiteSpace%3Dwrap%3Brounded%3D0%3B%22%20vertex%3D%221%22%20parent%3D%221%22%3E%3CmxGeometry%20x%3D%22427.5%22%20y%3D%22380%22%20width%3D%2260%22%20height%3D%2230%22%20as%3D%22geometry%22%2F%3E%3C%2FmxCell%3E%3CmxCell%20id%3D%2225%22%20value%3D%22%22%20style%3D%22rounded%3D0%3BwhiteSpace%3Dwrap%3Bhtml%3D1%3BfillColor%3D%23d5e8d4%3BstrokeColor%3D%2382b366%3B%22%20vertex%3D%221%22%20parent%3D%221%22%3E%3CmxGeometry%20x%3D%22320%22%20y%3D%22395%22%20width%3D%2295%22%20height%3D%2240%22%20as%3D%22geometry%22%2F%3E%3C%2FmxCell%3E%3CmxCell%20id%3D%2226%22%20value%3D%22Atualizar%20Dados%26amp%3Bnbsp%3B%22%20style%3D%22text%3Bhtml%3D1%3Balign%3Dcenter%3BverticalAlign%3Dmiddle%3BwhiteSpace%3Dwrap%3Brounded%3D0%3B%22%20vertex%3D%221%22%20parent%3D%221%22%3E%3CmxGeometry%20x%3D%22337.5%22%20y%3D%22400%22%20width%3D%2260%22%20height%3D%2230%22%20as%3D%22geometry%22%2F%3E%3C%2FmxCell%3E%3CmxCell%20id%3D%2227%22%20value%3D%22%22%20style%3D%22endArrow%3Dclassic%3Bhtml%3D1%3Brounded%3D0%3B%22%20edge%3D%221%22%20parent%3D%221%22%3E%3CmxGeometry%20width%3D%2250%22%20height%3D%2250%22%20relative%3D%221%22%20as%3D%22geometry%22%3E%3CmxPoint%20x%3D%22607.5%22%20y%3D%22414.5%22%20as%3D%22sourcePoint%22%2F%3E%3CmxPoint%20x%3D%22687.5%22%20y%3D%22414.5%22%20as%3D%22targetPoint%22%2F%3E%3C%2FmxGeometry%3E%3C%2FmxCell%3E%3CmxCell%20id%3D%2228%22%20value%3D%22Cliente%20n%C3%A3o%20cadastrado%22%20style%3D%22text%3Bhtml%3D1%3Balign%3Dcenter%3BverticalAlign%3Dmiddle%3BwhiteSpace%3Dwrap%3Brounded%3D0%3B%22%20vertex%3D%221%22%20parent%3D%221%22%3E%3CmxGeometry%20x%3D%22597.5%22%20y%3D%22380%22%20width%3D%2292.5%22%20height%3D%2230%22%20as%3D%22geometry%22%2F%3E%3C%2FmxCell%3E%3CmxCell%20id%3D%2229%22%20value%3D%22%22%20style%3D%22rounded%3D0%3BwhiteSpace%3Dwrap%3Bhtml%3D1%3BfillColor%3D%23d5e8d4%3BstrokeColor%3D%2382b366%3B%22%20vertex%3D%221%22%20parent%3D%221%22%3E%3CmxGeometry%20x%3D%22690%22%20y%3D%22400%22%20width%3D%2295%22%20height%3D%2240%22%20as%3D%22geometry%22%2F%3E%3C%2FmxCell%3E%3CmxCell%20id%3D%2230%22%20value%3D%22Cadastrar%20Cliente%26amp%3Bnbsp%3B%22%20style%3D%22text%3Bhtml%3D1%3Balign%3Dcenter%3BverticalAlign%3Dmiddle%3BwhiteSpace%3Dwrap%3Brounded%3D0%3B%22%20vertex%3D%221%22%20parent%3D%221%22%3E%3CmxGeometry%20x%3D%22707.5%22%20y%3D%22405%22%20width%3D%2260%22%20height%3D%2230%22%20as%3D%22geometry%22%2F%3E%3C%2FmxCell%3E%3CmxCell%20id%3D%2231%22%20value%3D%22%22%20style%3D%22endArrow%3Dclassic%3Bhtml%3D1%3Brounded%3D0%3B%22%20edge%3D%221%22%20parent%3D%221%22%3E%3CmxGeometry%20width%3D%2250%22%20height%3D%2250%22%20relative%3D%221%22%20as%3D%22geometry%22%3E%3CmxPoint%20x%3D%22360%22%20y%3D%22435%22%20as%3D%22sourcePoint%22%2F%3E%3CmxPoint%20x%3D%22360%22%20y%3D%22505%22%20as%3D%22targetPoint%22%2F%3E%3C%2FmxGeometry%3E%3C%2FmxCell%3E%3CmxCell%20id%3D%2232%22%20value%3D%22%22%20style%3D%22rounded%3D0%3BwhiteSpace%3Dwrap%3Bhtml%3D1%3BfillColor%3D%23d5e8d4%3BstrokeColor%3D%2382b366%3B%22%20vertex%3D%221%22%20parent%3D%221%22%3E%3CmxGeometry%20x%3D%22315%22%20y%3D%22510%22%20width%3D%2295%22%20height%3D%2240%22%20as%3D%22geometry%22%2F%3E%3C%2FmxCell%3E%3CmxCell%20id%3D%2233%22%20value%3D%22Comfirma%C3%A7%C3%A3o%20de%20Cadastro%26amp%3Bnbsp%3B%22%20style%3D%22text%3Bhtml%3D1%3Balign%3Dcenter%3BverticalAlign%3Dmiddle%3BwhiteSpace%3Dwrap%3Brounded%3D0%3B%22%20vertex%3D%221%22%20parent%3D%221%22%3E%3CmxGeometry%20x%3D%22332.5%22%20y%3D%22515%22%20width%3D%2260%22%20height%3D%2230%22%20as%3D%22geometry%22%2F%3E%3C%2FmxCell%3E%3CmxCell%20id%3D%2234%22%20value%3D%22%22%20style%3D%22endArrow%3Dclassic%3Bhtml%3D1%3Brounded%3D0%3B%22%20edge%3D%221%22%20parent%3D%221%22%3E%3CmxGeometry%20width%3D%2250%22%20height%3D%2250%22%20relative%3D%221%22%20as%3D%22geometry%22%3E%3CmxPoint%20x%3D%22362%22%20y%3D%22550%22%20as%3D%22sourcePoint%22%2F%3E%3CmxPoint%20x%3D%22362%22%20y%3D%22630%22%20as%3D%22targetPoint%22%2F%3E%3C%2FmxGeometry%3E%3C%2FmxCell%3E%3CmxCell%20id%3D%2235%22%20value%3D%22%22%20style%3D%22rounded%3D0%3BwhiteSpace%3Dwrap%3Bhtml%3D1%3BfillColor%3D%23d5e8d4%3BstrokeColor%3D%2382b366%3B%22%20vertex%3D%221%22%20parent%3D%221%22%3E%3CmxGeometry%20x%3D%22315%22%20y%3D%22640%22%20width%3D%2295%22%20height%3D%2240%22%20as%3D%22geometry%22%2F%3E%3C%2FmxCell%3E%3CmxCell%20id%3D%2236%22%20value%3D%22Registro%20de%20Atividades%22%20style%3D%22text%3Bhtml%3D1%3Balign%3Dcenter%3BverticalAlign%3Dmiddle%3BwhiteSpace%3Dwrap%3Brounded%3D0%3B%22%20vertex%3D%221%22%20parent%3D%221%22%3E%3CmxGeometry%20x%3D%22326.25%22%20y%3D%22645%22%20width%3D%2282.5%22%20height%3D%2230%22%20as%3D%22geometry%22%2F%3E%3C%2FmxCell%3E%3CmxCell%20id%3D%2237%22%20value%3D%22%22%20style%3D%22endArrow%3Dclassic%3Bhtml%3D1%3Brounded%3D0%3B%22%20edge%3D%221%22%20parent%3D%221%22%3E%3CmxGeometry%20width%3D%2250%22%20height%3D%2250%22%20relative%3D%221%22%20as%3D%22geometry%22%3E%3CmxPoint%20x%3D%22362%22%20y%3D%22680%22%20as%3D%22sourcePoint%22%2F%3E%3CmxPoint%20x%3D%22362%22%20y%3D%22760%22%20as%3D%22targetPoint%22%2F%3E%3C%2FmxGeometry%3E%3C%2FmxCell%3E%3CmxCell%20id%3D%2238%22%20value%3D%22%22%20style%3D%22endArrow%3Dclassic%3Bhtml%3D1%3Brounded%3D0%3B%22%20edge%3D%221%22%20parent%3D%221%22%3E%3CmxGeometry%20width%3D%2250%22%20height%3D%2250%22%20relative%3D%221%22%20as%3D%22geometry%22%3E%3CmxPoint%20x%3D%22302.5%22%20y%3D%2219.5%22%20as%3D%22sourcePoint%22%2F%3E%3CmxPoint%20x%3D%22212.5%22%20y%3D%2220%22%20as%3D%22targetPoint%22%2F%3E%3C%2FmxGeometry%3E%3C%2FmxCell%3E%3CmxCell%20id%3D%2239%22%20value%3D%22%22%20style%3D%22ellipse%3BwhiteSpace%3Dwrap%3Bhtml%3D1%3BfillColor%3D%23e1d5e7%3BstrokeColor%3D%239673a6%3B%22%20vertex%3D%221%22%20parent%3D%221%22%3E%3CmxGeometry%20x%3D%22120%22%20y%3D%22-10%22%20width%3D%2285%22%20height%3D%2260%22%20as%3D%22geometry%22%2F%3E%3C%2FmxCell%3E%3CmxCell%20id%3D%2240%22%20value%3D%22inicio%22%20style%3D%22text%3Bhtml%3D1%3Balign%3Dcenter%3BverticalAlign%3Dmiddle%3BwhiteSpace%3Dwrap%3Brounded%3D0%3B%22%20vertex%3D%221%22%20parent%3D%221%22%3E%3CmxGeometry%20x%3D%22132.5%22%20y%3D%225%22%20width%3D%2260%22%20height%3D%2230%22%20as%3D%22geometry%22%2F%3E%3C%2FmxCell%3E%3CmxCell%20id%3D%2241%22%20value%3D%22%22%20style%3D%22ellipse%3BwhiteSpace%3Dwrap%3Bhtml%3D1%3BfillColor%3D%23e1d5e7%3BstrokeColor%3D%239673a6%3B%22%20vertex%3D%221%22%20parent%3D%221%22%3E%3CmxGeometry%20x%3D%22317.5%22%20y%3D%22770%22%20width%3D%2290%22%20height%3D%2260%22%20as%3D%22geometry%22%2F%3E%3C%2FmxCell%3E%3CmxCell%20id%3D%2242%22%20value%3D%22FIm%22%20style%3D%22text%3Bhtml%3D1%3Balign%3Dcenter%3BverticalAlign%3Dmiddle%3BwhiteSpace%3Dwrap%3Brounded%3D0%3B%22%20vertex%3D%221%22%20parent%3D%221%22%3E%3CmxGeometry%20x%3D%22332.5%22%20y%3D%22785%22%20width%3D%2260%22%20height%3D%2230%22%20as%3D%22geometry%22%2F%3E%3C%2FmxCell%3E%3C%2Froot%3E%3C%2FmxGraphModel%3Eolt&lt;/span&gt;" style="text;html=1;align=center;verticalAlign=middle;whiteSpace=wrap;rounded=0;" vertex="1" parent="1">
          <mxGeometry x="517.5" y="265" width="60" height="30" as="geometry" />
        </mxCell>
        <mxCell id="9U9EcaoJvpD9vKmyw7PU-16" value="Exibir Mensagem de Erro" style="text;html=1;align=center;verticalAlign=middle;whiteSpace=wrap;rounded=0;" vertex="1" parent="1">
          <mxGeometry x="115" y="270" width="90" height="30" as="geometry" />
        </mxCell>
        <mxCell id="9U9EcaoJvpD9vKmyw7PU-17" value="" style="endArrow=classic;html=1;rounded=0;" edge="1" parent="1">
          <mxGeometry width="50" height="50" relative="1" as="geometry">
            <mxPoint x="547" y="300" as="sourcePoint" />
            <mxPoint x="547" y="370" as="targetPoint" />
          </mxGeometry>
        </mxCell>
        <mxCell id="9U9EcaoJvpD9vKmyw7PU-18" value="" style="rhombus;whiteSpace=wrap;html=1;fillColor=#fff2cc;strokeColor=#d6b656;" vertex="1" parent="1">
          <mxGeometry x="488.75" y="500" width="120" height="90" as="geometry" />
        </mxCell>
        <mxCell id="9U9EcaoJvpD9vKmyw7PU-19" value="" style="endArrow=classic;html=1;rounded=0;exitX=0.25;exitY=1;exitDx=0;exitDy=0;" edge="1" parent="1">
          <mxGeometry width="50" height="50" relative="1" as="geometry">
            <mxPoint x="487.5" y="414.5" as="sourcePoint" />
            <mxPoint x="487.5" y="414.5" as="targetPoint" />
          </mxGeometry>
        </mxCell>
        <mxCell id="9U9EcaoJvpD9vKmyw7PU-20" value="Comfirmação da deletação?" style="text;html=1;align=center;verticalAlign=middle;whiteSpace=wrap;rounded=0;" vertex="1" parent="1">
          <mxGeometry x="518.75" y="530" width="60" height="30" as="geometry" />
        </mxCell>
        <mxCell id="9U9EcaoJvpD9vKmyw7PU-21" value="" style="rounded=0;whiteSpace=wrap;html=1;fillColor=#d5e8d4;strokeColor=#82b366;" vertex="1" parent="1">
          <mxGeometry x="302.5" y="520" width="95" height="40" as="geometry" />
        </mxCell>
        <mxCell id="9U9EcaoJvpD9vKmyw7PU-22" value="" style="endArrow=classic;html=1;rounded=0;" edge="1" parent="1">
          <mxGeometry width="50" height="50" relative="1" as="geometry">
            <mxPoint x="608.75" y="544.5" as="sourcePoint" />
            <mxPoint x="688.75" y="544.5" as="targetPoint" />
          </mxGeometry>
        </mxCell>
        <mxCell id="9U9EcaoJvpD9vKmyw7PU-23" value="Cliente não cadastrado" style="text;html=1;align=center;verticalAlign=middle;whiteSpace=wrap;rounded=0;" vertex="1" parent="1">
          <mxGeometry x="500" y="375" width="92.5" height="30" as="geometry" />
        </mxCell>
        <mxCell id="9U9EcaoJvpD9vKmyw7PU-24" value="" style="rounded=0;whiteSpace=wrap;html=1;fillColor=#d5e8d4;strokeColor=#82b366;" vertex="1" parent="1">
          <mxGeometry x="690" y="525" width="95" height="40" as="geometry" />
        </mxCell>
        <mxCell id="9U9EcaoJvpD9vKmyw7PU-25" value="Cancelar e encerrar processo&lt;div&gt;&lt;br&gt;&lt;/div&gt;" style="text;html=1;align=center;verticalAlign=middle;whiteSpace=wrap;rounded=0;" vertex="1" parent="1">
          <mxGeometry x="687.5" y="535" width="100" height="30" as="geometry" />
        </mxCell>
        <mxCell id="9U9EcaoJvpD9vKmyw7PU-26" value="" style="endArrow=classic;html=1;rounded=0;" edge="1" parent="1">
          <mxGeometry width="50" height="50" relative="1" as="geometry">
            <mxPoint x="548.25" y="410" as="sourcePoint" />
            <mxPoint x="548.25" y="490" as="targetPoint" />
          </mxGeometry>
        </mxCell>
        <mxCell id="9U9EcaoJvpD9vKmyw7PU-27" value="" style="endArrow=classic;html=1;rounded=0;" edge="1" parent="1">
          <mxGeometry width="50" height="50" relative="1" as="geometry">
            <mxPoint x="302.5" y="19.5" as="sourcePoint" />
            <mxPoint x="212.5" y="20" as="targetPoint" />
          </mxGeometry>
        </mxCell>
        <mxCell id="9U9EcaoJvpD9vKmyw7PU-28" value="" style="ellipse;whiteSpace=wrap;html=1;fillColor=#e1d5e7;strokeColor=#9673a6;" vertex="1" parent="1">
          <mxGeometry x="120" y="-10" width="85" height="60" as="geometry" />
        </mxCell>
        <mxCell id="9U9EcaoJvpD9vKmyw7PU-29" value="inicio" style="text;html=1;align=center;verticalAlign=middle;whiteSpace=wrap;rounded=0;" vertex="1" parent="1">
          <mxGeometry x="132.5" y="5" width="60" height="30" as="geometry" />
        </mxCell>
        <mxCell id="9U9EcaoJvpD9vKmyw7PU-30" value="" style="ellipse;whiteSpace=wrap;html=1;fillColor=#e1d5e7;strokeColor=#9673a6;" vertex="1" parent="1">
          <mxGeometry x="115" y="810" width="90" height="60" as="geometry" />
        </mxCell>
        <mxCell id="9U9EcaoJvpD9vKmyw7PU-31" value="Exibir dados do cliente" style="text;html=1;align=center;verticalAlign=middle;whiteSpace=wrap;rounded=0;" vertex="1" parent="1">
          <mxGeometry x="517.5" y="265" width="60" height="30" as="geometry" />
        </mxCell>
        <mxCell id="9U9EcaoJvpD9vKmyw7PU-32" value="" style="rounded=0;whiteSpace=wrap;html=1;fillColor=#d5e8d4;strokeColor=#82b366;" vertex="1" parent="1">
          <mxGeometry x="500" y="370" width="95" height="40" as="geometry" />
        </mxCell>
        <mxCell id="9U9EcaoJvpD9vKmyw7PU-33" value="Comfirmar Deletação" style="text;html=1;align=center;verticalAlign=middle;whiteSpace=wrap;rounded=0;" vertex="1" parent="1">
          <mxGeometry x="502.5" y="375" width="92.5" height="30" as="geometry" />
        </mxCell>
        <mxCell id="9U9EcaoJvpD9vKmyw7PU-34" value="Não" style="text;html=1;align=center;verticalAlign=middle;whiteSpace=wrap;rounded=0;" vertex="1" parent="1">
          <mxGeometry x="620" y="520" width="60" height="30" as="geometry" />
        </mxCell>
        <mxCell id="9U9EcaoJvpD9vKmyw7PU-35" value="" style="endArrow=classic;html=1;rounded=0;" edge="1" parent="1">
          <mxGeometry width="50" height="50" relative="1" as="geometry">
            <mxPoint x="487.5" y="544.5" as="sourcePoint" />
            <mxPoint x="410" y="545" as="targetPoint" />
          </mxGeometry>
        </mxCell>
        <mxCell id="9U9EcaoJvpD9vKmyw7PU-36" value="Sim" style="text;html=1;align=center;verticalAlign=middle;whiteSpace=wrap;rounded=0;" vertex="1" parent="1">
          <mxGeometry x="427.5" y="520" width="60" height="30" as="geometry" />
        </mxCell>
        <mxCell id="9U9EcaoJvpD9vKmyw7PU-37" value="Deletar dados do cliente&amp;nbsp;" style="text;html=1;align=center;verticalAlign=middle;whiteSpace=wrap;rounded=0;" vertex="1" parent="1">
          <mxGeometry x="305" y="525" width="92.5" height="30" as="geometry" />
        </mxCell>
        <mxCell id="9U9EcaoJvpD9vKmyw7PU-38" value="" style="endArrow=classic;html=1;rounded=0;" edge="1" parent="1">
          <mxGeometry width="50" height="50" relative="1" as="geometry">
            <mxPoint x="340" y="560" as="sourcePoint" />
            <mxPoint x="340" y="640" as="targetPoint" />
          </mxGeometry>
        </mxCell>
        <mxCell id="9U9EcaoJvpD9vKmyw7PU-39" value="" style="rhombus;whiteSpace=wrap;html=1;fillColor=#fff2cc;strokeColor=#d6b656;" vertex="1" parent="1">
          <mxGeometry x="280" y="650" width="120" height="90" as="geometry" />
        </mxCell>
        <mxCell id="9U9EcaoJvpD9vKmyw7PU-40" value="Deletação bem-sucedida?" style="text;html=1;align=center;verticalAlign=middle;whiteSpace=wrap;rounded=0;" vertex="1" parent="1">
          <mxGeometry x="310" y="680" width="60" height="30" as="geometry" />
        </mxCell>
        <mxCell id="9U9EcaoJvpD9vKmyw7PU-41" value="" style="endArrow=classic;html=1;rounded=0;" edge="1" parent="1">
          <mxGeometry width="50" height="50" relative="1" as="geometry">
            <mxPoint x="400" y="694.5" as="sourcePoint" />
            <mxPoint x="490" y="694.5" as="targetPoint" />
          </mxGeometry>
        </mxCell>
        <mxCell id="9U9EcaoJvpD9vKmyw7PU-42" value="Não" style="text;html=1;align=center;verticalAlign=middle;whiteSpace=wrap;rounded=0;" vertex="1" parent="1">
          <mxGeometry x="410" y="670" width="60" height="30" as="geometry" />
        </mxCell>
        <mxCell id="9U9EcaoJvpD9vKmyw7PU-43" value="" style="rounded=0;whiteSpace=wrap;html=1;fillColor=#d5e8d4;strokeColor=#82b366;" vertex="1" parent="1">
          <mxGeometry x="497.5" y="675" width="142.5" height="45" as="geometry" />
        </mxCell>
        <mxCell id="9U9EcaoJvpD9vKmyw7PU-44" value="Exibir Mensagem de erro e encerrar processo" style="text;html=1;align=center;verticalAlign=middle;whiteSpace=wrap;rounded=0;" vertex="1" parent="1">
          <mxGeometry x="502.5" y="680" width="137.5" height="30" as="geometry" />
        </mxCell>
        <mxCell id="9U9EcaoJvpD9vKmyw7PU-45" value="" style="endArrow=classic;html=1;rounded=0;" edge="1" parent="1">
          <mxGeometry width="50" height="50" relative="1" as="geometry">
            <mxPoint x="280" y="694.5" as="sourcePoint" />
            <mxPoint x="217.5" y="694.69" as="targetPoint" />
          </mxGeometry>
        </mxCell>
        <mxCell id="9U9EcaoJvpD9vKmyw7PU-46" value="Deletar dados do cliente&amp;nbsp;" style="text;html=1;align=center;verticalAlign=middle;whiteSpace=wrap;rounded=0;" vertex="1" parent="1">
          <mxGeometry x="117.5" y="682.5" width="92.5" height="30" as="geometry" />
        </mxCell>
        <mxCell id="9U9EcaoJvpD9vKmyw7PU-47" value="" style="rounded=0;whiteSpace=wrap;html=1;fillColor=#d5e8d4;strokeColor=#82b366;" vertex="1" parent="1">
          <mxGeometry x="115" y="677.5" width="95" height="40" as="geometry" />
        </mxCell>
        <mxCell id="9U9EcaoJvpD9vKmyw7PU-48" value="Exibir mensagem de Sucesso" style="text;html=1;align=center;verticalAlign=middle;whiteSpace=wrap;rounded=0;" vertex="1" parent="1">
          <mxGeometry x="120" y="682.5" width="92.5" height="30" as="geometry" />
        </mxCell>
        <mxCell id="9U9EcaoJvpD9vKmyw7PU-49" value="Sim" style="text;html=1;align=center;verticalAlign=middle;whiteSpace=wrap;rounded=0;" vertex="1" parent="1">
          <mxGeometry x="220" y="670" width="60" height="30" as="geometry" />
        </mxCell>
        <mxCell id="9U9EcaoJvpD9vKmyw7PU-50" value="" style="endArrow=classic;html=1;rounded=0;" edge="1" parent="1">
          <mxGeometry width="50" height="50" relative="1" as="geometry">
            <mxPoint x="162" y="717.5" as="sourcePoint" />
            <mxPoint x="162" y="797.5" as="targetPoint" />
          </mxGeometry>
        </mxCell>
        <mxCell id="9U9EcaoJvpD9vKmyw7PU-51" value="Fim" style="text;html=1;align=center;verticalAlign=middle;whiteSpace=wrap;rounded=0;" vertex="1" parent="1">
          <mxGeometry x="120" y="817.5" width="80" height="45" as="geometry" />
        </mxCell>
        <mxCell id="9U9EcaoJvpD9vKmyw7PU-52" style="edgeStyle=orthogonalEdgeStyle;rounded=0;orthogonalLoop=1;jettySize=auto;html=1;exitX=0.5;exitY=1;exitDx=0;exitDy=0;" edge="1" parent="1" source="9U9EcaoJvpD9vKmyw7PU-51" target="9U9EcaoJvpD9vKmyw7PU-51">
          <mxGeometry relative="1" as="geometry" />
        </mxCell>
      </root>
    </mxGraphModel>
  </diagram>
  <diagram name="Produção" id="n4F2fIXht7cokp8Ij1KM">
    <mxGraphModel dx="1434" dy="1951" grid="1" gridSize="10" guides="1" tooltips="1" connect="1" arrows="1" fold="1" page="1" pageScale="1" pageWidth="827" pageHeight="1169" math="0" shadow="0">
      <root>
        <mxCell id="0" />
        <mxCell id="1" parent="0" />
        <mxCell id="-QIOjVmuAW-Z_RPg6oBH-69" value="" style="rounded=0;whiteSpace=wrap;html=1;fillColor=#d5e8d4;strokeColor=#82b366;" vertex="1" parent="1">
          <mxGeometry x="302.5" width="95" height="40" as="geometry" />
        </mxCell>
        <mxCell id="-QIOjVmuAW-Z_RPg6oBH-71" value="Recebimento do Pedido" style="text;html=1;align=center;verticalAlign=middle;whiteSpace=wrap;rounded=0;" vertex="1" parent="1">
          <mxGeometry x="320" y="5" width="60" height="30" as="geometry" />
        </mxCell>
        <mxCell id="-QIOjVmuAW-Z_RPg6oBH-76" value="" style="rounded=0;whiteSpace=wrap;html=1;fillColor=#d5e8d4;strokeColor=#82b366;" vertex="1" parent="1">
          <mxGeometry x="302.5" y="120" width="95" height="40" as="geometry" />
        </mxCell>
        <mxCell id="-QIOjVmuAW-Z_RPg6oBH-77" value="Planejamento de produção" style="text;html=1;align=center;verticalAlign=middle;whiteSpace=wrap;rounded=0;" vertex="1" parent="1">
          <mxGeometry x="320" y="125" width="60" height="30" as="geometry" />
        </mxCell>
        <mxCell id="-QIOjVmuAW-Z_RPg6oBH-88" value="" style="endArrow=classic;html=1;rounded=0;" edge="1" parent="1">
          <mxGeometry width="50" height="50" relative="1" as="geometry">
            <mxPoint x="349.5" y="40" as="sourcePoint" />
            <mxPoint x="349.5" y="110" as="targetPoint" />
          </mxGeometry>
        </mxCell>
        <mxCell id="-QIOjVmuAW-Z_RPg6oBH-90" value="" style="endArrow=classic;html=1;rounded=0;" edge="1" parent="1">
          <mxGeometry width="50" height="50" relative="1" as="geometry">
            <mxPoint x="349.5" y="160" as="sourcePoint" />
            <mxPoint x="349.5" y="230" as="targetPoint" />
          </mxGeometry>
        </mxCell>
        <mxCell id="-QIOjVmuAW-Z_RPg6oBH-91" value="" style="rhombus;whiteSpace=wrap;html=1;fillColor=#fff2cc;strokeColor=#d6b656;" vertex="1" parent="1">
          <mxGeometry x="290" y="240" width="120" height="90" as="geometry" />
        </mxCell>
        <mxCell id="-QIOjVmuAW-Z_RPg6oBH-92" value="Chegada de Matéria-Prima&amp;nbsp;&lt;div&gt;&lt;br&gt;&lt;/div&gt;" style="text;html=1;align=center;verticalAlign=middle;whiteSpace=wrap;rounded=0;" vertex="1" parent="1">
          <mxGeometry x="320" y="280" width="60" height="30" as="geometry" />
        </mxCell>
        <mxCell id="-QIOjVmuAW-Z_RPg6oBH-95" value="" style="endArrow=classic;html=1;rounded=0;exitX=1;exitY=0.5;exitDx=0;exitDy=0;" edge="1" parent="1" source="-QIOjVmuAW-Z_RPg6oBH-91">
          <mxGeometry width="50" height="50" relative="1" as="geometry">
            <mxPoint x="423.5" y="280" as="sourcePoint" />
            <mxPoint x="493.5" y="280" as="targetPoint" />
          </mxGeometry>
        </mxCell>
        <mxCell id="-QIOjVmuAW-Z_RPg6oBH-96" value="" style="endArrow=classic;html=1;rounded=0;exitX=0;exitY=0.5;exitDx=0;exitDy=0;" edge="1" parent="1" source="-QIOjVmuAW-Z_RPg6oBH-91">
          <mxGeometry width="50" height="50" relative="1" as="geometry">
            <mxPoint x="280" y="280.19" as="sourcePoint" />
            <mxPoint x="210" y="280" as="targetPoint" />
          </mxGeometry>
        </mxCell>
        <mxCell id="-QIOjVmuAW-Z_RPg6oBH-97" value="Sim" style="text;html=1;align=center;verticalAlign=middle;whiteSpace=wrap;rounded=0;" vertex="1" parent="1">
          <mxGeometry x="414" y="260" width="60" height="30" as="geometry" />
        </mxCell>
        <mxCell id="-QIOjVmuAW-Z_RPg6oBH-98" value="Não" style="text;html=1;align=center;verticalAlign=middle;whiteSpace=wrap;rounded=0;" vertex="1" parent="1">
          <mxGeometry x="230" y="260" width="60" height="30" as="geometry" />
        </mxCell>
        <mxCell id="-QIOjVmuAW-Z_RPg6oBH-99" value="" style="rounded=0;whiteSpace=wrap;html=1;fillColor=#d5e8d4;strokeColor=#82b366;" vertex="1" parent="1">
          <mxGeometry x="500" y="260" width="95" height="40" as="geometry" />
        </mxCell>
        <mxCell id="-QIOjVmuAW-Z_RPg6oBH-100" value="" style="rounded=0;whiteSpace=wrap;html=1;fillColor=#d5e8d4;strokeColor=#82b366;" vertex="1" parent="1">
          <mxGeometry x="110" y="265" width="95" height="40" as="geometry" />
        </mxCell>
        <mxCell id="-QIOjVmuAW-Z_RPg6oBH-101" value="Corte de Tecido" style="text;html=1;align=center;verticalAlign=middle;whiteSpace=wrap;rounded=0;" vertex="1" parent="1">
          <mxGeometry x="517.5" y="265" width="60" height="30" as="geometry" />
        </mxCell>
        <mxCell id="-QIOjVmuAW-Z_RPg6oBH-102" value="Aguarde a Matéria-Prima" style="text;html=1;align=center;verticalAlign=middle;whiteSpace=wrap;rounded=0;" vertex="1" parent="1">
          <mxGeometry x="115" y="270" width="90" height="30" as="geometry" />
        </mxCell>
        <mxCell id="-QIOjVmuAW-Z_RPg6oBH-103" value="" style="endArrow=classic;html=1;rounded=0;" edge="1" parent="1">
          <mxGeometry width="50" height="50" relative="1" as="geometry">
            <mxPoint x="547" y="300" as="sourcePoint" />
            <mxPoint x="547" y="370" as="targetPoint" />
          </mxGeometry>
        </mxCell>
        <mxCell id="-QIOjVmuAW-Z_RPg6oBH-105" value="Corte de Tecido" style="text;html=1;align=center;verticalAlign=middle;whiteSpace=wrap;rounded=0;" vertex="1" parent="1">
          <mxGeometry x="517.5" y="400" width="60" height="30" as="geometry" />
        </mxCell>
        <mxCell id="-QIOjVmuAW-Z_RPg6oBH-106" value="" style="rhombus;whiteSpace=wrap;html=1;fillColor=#fff2cc;strokeColor=#d6b656;" vertex="1" parent="1">
          <mxGeometry x="487.5" y="370" width="120" height="90" as="geometry" />
        </mxCell>
        <mxCell id="-QIOjVmuAW-Z_RPg6oBH-107" value="Estamparia ou Bordado?" style="text;html=1;align=center;verticalAlign=middle;whiteSpace=wrap;rounded=0;" vertex="1" parent="1">
          <mxGeometry x="517.5" y="400" width="60" height="30" as="geometry" />
        </mxCell>
        <mxCell id="-QIOjVmuAW-Z_RPg6oBH-110" value="" style="endArrow=classic;html=1;rounded=0;exitX=0.25;exitY=1;exitDx=0;exitDy=0;" edge="1" parent="1">
          <mxGeometry width="50" height="50" relative="1" as="geometry">
            <mxPoint x="487.5" y="414.5" as="sourcePoint" />
            <mxPoint x="487.5" y="414.5" as="targetPoint" />
          </mxGeometry>
        </mxCell>
        <mxCell id="-QIOjVmuAW-Z_RPg6oBH-114" value="" style="endArrow=classic;html=1;rounded=0;" edge="1" parent="1">
          <mxGeometry width="50" height="50" relative="1" as="geometry">
            <mxPoint x="487.5" y="414.5" as="sourcePoint" />
            <mxPoint x="417.5" y="414.5" as="targetPoint" />
          </mxGeometry>
        </mxCell>
        <mxCell id="-QIOjVmuAW-Z_RPg6oBH-118" value="Sim" style="text;html=1;align=center;verticalAlign=middle;whiteSpace=wrap;rounded=0;" vertex="1" parent="1">
          <mxGeometry x="427.5" y="390" width="60" height="30" as="geometry" />
        </mxCell>
        <mxCell id="-QIOjVmuAW-Z_RPg6oBH-119" value="" style="rounded=0;whiteSpace=wrap;html=1;fillColor=#d5e8d4;strokeColor=#82b366;" vertex="1" parent="1">
          <mxGeometry x="320" y="395" width="95" height="40" as="geometry" />
        </mxCell>
        <mxCell id="-QIOjVmuAW-Z_RPg6oBH-120" value="Estamparia ou Bordado" style="text;html=1;align=center;verticalAlign=middle;whiteSpace=wrap;rounded=0;" vertex="1" parent="1">
          <mxGeometry x="337.5" y="400" width="60" height="30" as="geometry" />
        </mxCell>
        <mxCell id="-QIOjVmuAW-Z_RPg6oBH-121" value="" style="endArrow=classic;html=1;rounded=0;" edge="1" parent="1">
          <mxGeometry width="50" height="50" relative="1" as="geometry">
            <mxPoint x="607.5" y="414.5" as="sourcePoint" />
            <mxPoint x="687.5" y="414.5" as="targetPoint" />
          </mxGeometry>
        </mxCell>
        <mxCell id="-QIOjVmuAW-Z_RPg6oBH-122" value="Não" style="text;html=1;align=center;verticalAlign=middle;whiteSpace=wrap;rounded=0;" vertex="1" parent="1">
          <mxGeometry x="607.5" y="390" width="60" height="30" as="geometry" />
        </mxCell>
        <mxCell id="-QIOjVmuAW-Z_RPg6oBH-123" value="" style="rounded=0;whiteSpace=wrap;html=1;fillColor=#d5e8d4;strokeColor=#82b366;" vertex="1" parent="1">
          <mxGeometry x="690" y="400" width="95" height="40" as="geometry" />
        </mxCell>
        <mxCell id="-QIOjVmuAW-Z_RPg6oBH-124" value="Costura" style="text;html=1;align=center;verticalAlign=middle;whiteSpace=wrap;rounded=0;" vertex="1" parent="1">
          <mxGeometry x="707.5" y="405" width="60" height="30" as="geometry" />
        </mxCell>
        <mxCell id="-QIOjVmuAW-Z_RPg6oBH-125" value="" style="endArrow=classic;html=1;rounded=0;" edge="1" parent="1">
          <mxGeometry width="50" height="50" relative="1" as="geometry">
            <mxPoint x="360" y="435" as="sourcePoint" />
            <mxPoint x="360" y="505" as="targetPoint" />
          </mxGeometry>
        </mxCell>
        <mxCell id="-QIOjVmuAW-Z_RPg6oBH-126" value="" style="rounded=0;whiteSpace=wrap;html=1;fillColor=#d5e8d4;strokeColor=#82b366;" vertex="1" parent="1">
          <mxGeometry x="315" y="510" width="95" height="40" as="geometry" />
        </mxCell>
        <mxCell id="-QIOjVmuAW-Z_RPg6oBH-127" value="Costura" style="text;html=1;align=center;verticalAlign=middle;whiteSpace=wrap;rounded=0;" vertex="1" parent="1">
          <mxGeometry x="332.5" y="515" width="60" height="30" as="geometry" />
        </mxCell>
        <mxCell id="-QIOjVmuAW-Z_RPg6oBH-128" value="" style="endArrow=classic;html=1;rounded=0;" edge="1" parent="1">
          <mxGeometry width="50" height="50" relative="1" as="geometry">
            <mxPoint x="362" y="550" as="sourcePoint" />
            <mxPoint x="362" y="630" as="targetPoint" />
          </mxGeometry>
        </mxCell>
        <mxCell id="-QIOjVmuAW-Z_RPg6oBH-129" value="" style="rounded=0;whiteSpace=wrap;html=1;fillColor=#d5e8d4;strokeColor=#82b366;" vertex="1" parent="1">
          <mxGeometry x="315" y="640" width="95" height="40" as="geometry" />
        </mxCell>
        <mxCell id="-QIOjVmuAW-Z_RPg6oBH-130" value="Acabamento" style="text;html=1;align=center;verticalAlign=middle;whiteSpace=wrap;rounded=0;" vertex="1" parent="1">
          <mxGeometry x="337.5" y="645" width="60" height="30" as="geometry" />
        </mxCell>
        <mxCell id="-QIOjVmuAW-Z_RPg6oBH-131" value="" style="endArrow=classic;html=1;rounded=0;" edge="1" parent="1">
          <mxGeometry width="50" height="50" relative="1" as="geometry">
            <mxPoint x="362" y="680" as="sourcePoint" />
            <mxPoint x="362" y="760" as="targetPoint" />
          </mxGeometry>
        </mxCell>
        <mxCell id="-QIOjVmuAW-Z_RPg6oBH-132" value="" style="rounded=0;whiteSpace=wrap;html=1;fillColor=#d5e8d4;strokeColor=#82b366;" vertex="1" parent="1">
          <mxGeometry x="315" y="760" width="95" height="40" as="geometry" />
        </mxCell>
        <mxCell id="-QIOjVmuAW-Z_RPg6oBH-134" value="Embalagem" style="text;html=1;align=center;verticalAlign=middle;whiteSpace=wrap;rounded=0;" vertex="1" parent="1">
          <mxGeometry x="332.5" y="765" width="60" height="30" as="geometry" />
        </mxCell>
        <mxCell id="-QIOjVmuAW-Z_RPg6oBH-135" value="" style="endArrow=classic;html=1;rounded=0;" edge="1" parent="1">
          <mxGeometry width="50" height="50" relative="1" as="geometry">
            <mxPoint x="414" y="779.5" as="sourcePoint" />
            <mxPoint x="494" y="779.5" as="targetPoint" />
          </mxGeometry>
        </mxCell>
        <mxCell id="-QIOjVmuAW-Z_RPg6oBH-136" value="" style="rounded=0;whiteSpace=wrap;html=1;fillColor=#d5e8d4;strokeColor=#82b366;" vertex="1" parent="1">
          <mxGeometry x="500" y="755" width="95" height="40" as="geometry" />
        </mxCell>
        <mxCell id="-QIOjVmuAW-Z_RPg6oBH-137" value="Envio ou Distribuição" style="text;html=1;align=center;verticalAlign=middle;whiteSpace=wrap;rounded=0;" vertex="1" parent="1">
          <mxGeometry x="517.5" y="760" width="60" height="30" as="geometry" />
        </mxCell>
        <mxCell id="-QIOjVmuAW-Z_RPg6oBH-138" value="" style="endArrow=classic;html=1;rounded=0;" edge="1" parent="1">
          <mxGeometry width="50" height="50" relative="1" as="geometry">
            <mxPoint x="302.5" y="19.5" as="sourcePoint" />
            <mxPoint x="212.5" y="20" as="targetPoint" />
          </mxGeometry>
        </mxCell>
        <mxCell id="-QIOjVmuAW-Z_RPg6oBH-139" value="" style="ellipse;whiteSpace=wrap;html=1;fillColor=#e1d5e7;strokeColor=#9673a6;" vertex="1" parent="1">
          <mxGeometry x="120" y="-10" width="85" height="60" as="geometry" />
        </mxCell>
        <mxCell id="-QIOjVmuAW-Z_RPg6oBH-140" value="inicio" style="text;html=1;align=center;verticalAlign=middle;whiteSpace=wrap;rounded=0;" vertex="1" parent="1">
          <mxGeometry x="132.5" y="5" width="60" height="30" as="geometry" />
        </mxCell>
        <mxCell id="-QIOjVmuAW-Z_RPg6oBH-141" value="" style="endArrow=classic;html=1;rounded=0;" edge="1" parent="1">
          <mxGeometry width="50" height="50" relative="1" as="geometry">
            <mxPoint x="560" y="800" as="sourcePoint" />
            <mxPoint x="560" y="880" as="targetPoint" />
            <Array as="points">
              <mxPoint x="560" y="870" />
            </Array>
          </mxGeometry>
        </mxCell>
        <mxCell id="-QIOjVmuAW-Z_RPg6oBH-142" value="" style="ellipse;whiteSpace=wrap;html=1;fillColor=#e1d5e7;strokeColor=#9673a6;" vertex="1" parent="1">
          <mxGeometry x="517.5" y="880" width="90" height="60" as="geometry" />
        </mxCell>
        <mxCell id="-QIOjVmuAW-Z_RPg6oBH-143" value="FIm" style="text;html=1;align=center;verticalAlign=middle;whiteSpace=wrap;rounded=0;" vertex="1" parent="1">
          <mxGeometry x="535" y="895" width="60" height="30" as="geometry" />
        </mxCell>
      </root>
    </mxGraphModel>
  </diagram>
  <diagram id="Vur62p5Zo9mToWOc8NsY" name="Página-5">
    <mxGraphModel dx="1434" dy="782" grid="1" gridSize="10" guides="1" tooltips="1" connect="1" arrows="1" fold="1" page="1" pageScale="1" pageWidth="827" pageHeight="1169" math="0" shadow="0">
      <root>
        <mxCell id="0" />
        <mxCell id="1" parent="0" />
      </root>
    </mxGraphModel>
  </diagram>
</mxfile>
